<svg xmlns="http://www.w3.org/2000/svg" width="320" height="200" shape-rendering="geometricPrecision" image-rendering="optimizeQuality" fill-rule="evenodd" xmlns:v="https://vecta.io/nano"><defs><linearGradient id="A" gradientUnits="userSpaceOnUse" x1="23.79" y1="91.57" x2="53.27" y2="110.75"><stop offset="0" stop-color="#2fafa2"/><stop offset=".18" stop-color="#2fafa2"/><stop offset="1" stop-color="#005353"/></linearGradient><linearGradient id="B" gradientUnits="userSpaceOnUse" x1="74.75" y1="87.81" x2="57.08" y2="63.44"><stop offset="0" stop-color="#fefefe"/><stop offset="1" stop-color="#cbdb3a"/></linearGradient><linearGradient id="C" gradientUnits="userSpaceOnUse" x1="57.97" y1="53.65" x2="30.92" y2="96.82"><stop offset="0" stop-color="#2fafa2"/><stop offset="1" stop-color="#cbdb3a"/></linearGradient></defs><path d="M0 0h320v200H0z" fill="#fff"/><path d="M32.76 57.7c-1.77 1.6-3.34 3.34-4.72 5.18 14.39-8.52 33.41-5.54 45.19 7.53 4.3 4.79 7.07 10.55 8.41 16.39l8.87-14.81c-1.56-4.04-3.86-7.87-6.94-11.28-7.21-8.01-17.14-12.1-27.06-12.1-8.5 0-16.98 2.99-23.75 9.09z" fill="url(#B)"/><path d="M24.92 66.69c-5.65 9.79-6.28 21.09-2.67 30.84 2.78 7.52 17.29 16.62 15.54 13.9-1.4-2.18-2.56-4.51-3.46-6.94-3.6-9.75-2.71-20.72 2.93-30.5 8.8-15.23 26.85-22.07 42.7-16.72-1.73-1.52-3.9-2.9-5.97-4.09a35.11 35.11 0 0 0-17.66-4.74c-12.47 0-24.66 6.55-31.41 18.25z" fill="url(#C)"/><path d="M50.33 115.88l12.21-20.63s.18-.23.43-.63c2.51-3.97 8.58-3.78 11.19-1.09a1.93 1.93 0 0 0 .3.26l17.46 17.97 11.81 12.19-18.37-.01-19.97-21.91s-1.79-1.86-3.88-.05c-.63.54-2.02 2.49-2.02 2.49l-8.45 11.74-.71-.33z" fill="#005353" fill-rule="nonzero"/><path d="M32.12 111.75c2.3 1.99 4.73 3.83 7.23 5.16l3.11 1.45c4.4 1.78 7.4-.22 8.71-2.34l5.89-9.39 2.5-4.87c-.05.07-.99.25-1.28.69 0 0-1.16 1.9-2.49 2.62-1.02.55-1.7.91-3.33.79l-1.8-.14c-15.45-1.86-28.28-15.4-29.94-27.33-2.51 14.55 3.05 25.64 11.4 33.36z" fill="url(#A)"/><path d="M126.98 135.1c0 1.83-.29 3.43-.87 4.79s-1.39 2.5-2.43 3.4c-1.05.91-2.28 1.6-3.73 2.04-1.45.46-3.03.69-4.76.69a28.83 28.83 0 0 1-2.72-.14c-.96-.1-1.79-.23-2.51-.42v-20.67c.72-.2 1.55-.35 2.51-.45l2.72-.14c1.73 0 3.31.23 4.76.68s2.68 1.14 3.73 2.04c1.04.91 1.85 2.04 2.43 3.4s.87 2.96.87 4.78zm-14.92 8.87c.13.03.44.06.94.13.5.06 1.32.09 2.43.09 1.56 0 2.91-.21 4.06-.64 1.15-.42 2.13-1.02 2.91-1.81.78-.78 1.37-1.73 1.76-2.85.4-1.13.59-2.39.59-3.79 0-1.41-.19-2.67-.59-3.78-.39-1.12-.98-2.07-1.76-2.85s-1.76-1.38-2.91-1.81c-1.15-.42-2.5-.63-4.06-.63l-2.43.08-.94.14v17.72zm17.77-6.15c0-1.41.2-2.63.6-3.67.4-1.05.93-1.91 1.58-2.62a6.31 6.31 0 0 1 2.23-1.56c.83-.34 1.69-.51 2.58-.51 1.95 0 3.52.64 4.69 1.92s1.75 3.25 1.75 5.91l-.01.5-.05.46h-11.24c.06 1.96.55 3.47 1.45 4.52.91 1.05 2.35 1.58 4.34 1.58 1.09 0 1.96-.1 2.6-.32.64-.2 1.1-.37 1.39-.52l.38 1.74c-.29.16-.84.35-1.63.58s-1.73.35-2.8.35c-1.41 0-2.6-.22-3.59-.63s-1.8-.98-2.44-1.73c-.64-.74-1.11-1.62-1.4-2.64-.28-1.03-.43-2.14-.43-3.36zm11.36-1.27c-.05-1.67-.43-2.97-1.18-3.9-.74-.93-1.8-1.4-3.16-1.4-.72 0-1.37.14-1.94.43s-1.06.69-1.48 1.17-.74 1.04-.98 1.68c-.24.65-.38 1.32-.42 2.02h9.16zm7.79 6.41c.19.15.41.29.7.46.28.17.6.32.98.46a8.04 8.04 0 0 0 1.2.36 6.67 6.67 0 0 0 1.36.14c.99 0 1.82-.17 2.49-.51.68-.34 1.22-.81 1.63-1.4.41-.58.71-1.27.9-2.07a11.45 11.45 0 0 0 .27-2.52c0-2.1-.53-3.71-1.58-4.85-1.05-1.12-2.45-1.68-4.17-1.68-1 0-1.79.04-2.4.14l-1.38.29v11.18zm0 8.6h-2.01v-21.17c.6-.21 1.36-.41 2.29-.59.92-.19 2.1-.27 3.53-.27 1.18 0 2.25.19 3.2.57a6.98 6.98 0 0 1 2.48 1.64c.69.73 1.22 1.61 1.61 2.64.38 1.03.57 2.2.57 3.5 0 1.22-.16 2.33-.48 3.36-.33 1.02-.79 1.9-1.41 2.63s-1.37 1.3-2.27 1.71-1.93.62-3.09.62c-1.05 0-1.96-.15-2.73-.45-.77-.29-1.34-.58-1.69-.85v6.66zm20.3-7.18l2.06-.08 1.5-.2v-5.64a7.52 7.52 0 0 0-1.08-.32c-.5-.11-1.17-.17-2.04-.17a12.02 12.02 0 0 0-1.55.11c-.53.08-1.03.23-1.49.46-.45.24-.82.57-1.11.98s-.43.96-.43 1.64c0 .6.1 1.1.3 1.52a2.43 2.43 0 0 0 .83.99c.36.24.79.42 1.3.53.5.11 1.07.18 1.71.18zm-.18-14.92c1.05 0 1.94.15 2.68.45.73.3 1.32.71 1.78 1.24.45.52.78 1.15.98 1.87a8.86 8.86 0 0 1 .31 2.36v10.08c-.2.07-.5.13-.9.2l-1.35.23-1.71.21-1.94.08c-.85 0-1.63-.1-2.34-.29-.71-.18-1.33-.48-1.86-.88-.52-.4-.94-.91-1.23-1.55-.31-.62-.46-1.39-.46-2.3 0-.87.17-1.61.5-2.23a4.18 4.18 0 0 1 1.39-1.54c.6-.39 1.31-.69 2.14-.87.82-.19 1.72-.28 2.69-.28l.91.04.93.13.77.15c.22.05.37.1.45.14v-.99a10.74 10.74 0 0 0-.12-1.62c-.08-.53-.26-1-.54-1.42s-.67-.77-1.17-1.03c-.51-.25-1.18-.39-2-.39-1.18 0-2.05.08-2.63.25l-1.28.4-.28-1.76c.35-.17.9-.32 1.64-.46.72-.15 1.61-.22 2.64-.22zm15.57.07c.65 0 1.28.05 1.87.15s.99.21 1.22.31l-.4 1.73c-.17-.08-.5-.17-1-.26-.51-.1-1.18-.14-2-.14-.87 0-1.56.06-2.09.18-.53.13-.87.24-1.03.32v14.01h-2.02v-15.25c.52-.23 1.23-.47 2.14-.7.9-.24 2.01-.35 3.31-.35zm7.24.3h6.37v1.7h-6.37v8.51c0 .92.08 1.65.24 2.22.15.57.36 1 .65 1.31a2.08 2.08 0 0 0 1.06.62c.41.11.86.16 1.36.16.85 0 1.52-.1 2.04-.3.52-.19.91-.38 1.2-.54l.5 1.67c-.29.19-.79.4-1.51.64a7.73 7.73 0 0 1-2.36.36c-.99 0-1.81-.14-2.49-.39-.67-.26-1.21-.65-1.6-1.18-.41-.52-.69-1.18-.85-1.96-.17-.78-.26-1.71-.26-2.79v-14.73l2.02-.37v5.07zm14.35 14.55l2.06-.08 1.5-.2v-5.64a7.52 7.52 0 0 0-1.08-.32c-.5-.11-1.17-.17-2.04-.17a12.02 12.02 0 0 0-1.55.11c-.53.08-1.03.23-1.49.46-.45.24-.82.57-1.11.98s-.43.96-.43 1.64c0 .6.1 1.1.3 1.52a2.43 2.43 0 0 0 .83.99c.36.24.79.42 1.3.53.5.11 1.07.18 1.71.18zm-.18-14.92c1.05 0 1.94.15 2.68.45.73.3 1.32.71 1.78 1.24.45.52.78 1.15.98 1.87a8.86 8.86 0 0 1 .31 2.36v10.08c-.2.07-.5.13-.9.2l-1.36.23-1.71.21-1.93.08c-.86 0-1.63-.1-2.34-.29-.71-.18-1.33-.48-1.86-.88-.52-.4-.94-.91-1.23-1.55-.31-.62-.46-1.39-.46-2.3 0-.87.17-1.61.5-2.23a4.18 4.18 0 0 1 1.39-1.54c.6-.39 1.31-.69 2.14-.87.82-.19 1.71-.28 2.69-.28l.91.04.93.13.77.15c.22.05.37.1.45.14v-.99a10.74 10.74 0 0 0-.12-1.62 3.59 3.59 0 0 0-.54-1.42c-.28-.42-.67-.77-1.17-1.03-.51-.25-1.18-.39-2-.39-1.18 0-2.06.08-2.64.25l-1.27.4-.28-1.76c.35-.17.9-.32 1.63-.46.73-.15 1.62-.22 2.65-.22zm10.12.93l2.34-.56c.95-.2 2.2-.3 3.73-.3 2.02 0 3.49.58 4.39 1.76.1-.08.3-.22.61-.42.29-.2.67-.4 1.13-.61.45-.2.98-.37 1.59-.52.6-.14 1.28-.21 2.02-.21 1.22 0 2.2.17 2.96.53.75.36 1.34.87 1.75 1.52.41.66.69 1.44.84 2.34.14.9.21 1.9.21 2.97v8.94h-2.01v-8.29c0-1.05-.05-1.96-.14-2.74-.1-.77-.28-1.42-.56-1.92s-.67-.89-1.19-1.14c-.52-.26-1.18-.39-2.02-.39-.61 0-1.17.05-1.67.17-.51.11-.95.25-1.32.42-.37.16-.67.32-.91.49l-.52.38a8.98 8.98 0 0 1 .42 1.8 16.1 16.1 0 0 1 .14 2.13v9.09h-2.01v-8.29c0-1.05-.05-1.96-.14-2.74-.1-.77-.28-1.42-.57-1.92a2.8 2.8 0 0 0-1.22-1.14c-.53-.26-1.22-.39-2.09-.39-.97 0-1.79.05-2.47.15-.67.1-1.09.2-1.28.28v14.05h-2.01v-15.44zm24.97 7.43c0-1.41.2-2.63.6-3.67.41-1.05.93-1.91 1.58-2.62a6.4 6.4 0 0 1 2.23-1.56c.83-.34 1.69-.51 2.58-.51 1.96 0 3.53.64 4.69 1.92 1.17 1.28 1.75 3.25 1.75 5.91l-.01.5-.05.46H243.3c.06 1.96.55 3.47 1.46 4.52.9 1.05 2.35 1.58 4.33 1.58 1.1 0 1.97-.1 2.61-.32.64-.2 1.09-.37 1.38-.52l.38 1.74c-.29.16-.84.35-1.62.58-.8.23-1.73.35-2.81.35-1.4 0-2.6-.22-3.59-.63s-1.8-.98-2.44-1.73c-.64-.74-1.1-1.62-1.39-2.64-.29-1.03-.44-2.14-.44-3.36zm11.36-1.27c-.05-1.67-.43-2.97-1.18-3.9-.74-.93-1.79-1.4-3.15-1.4-.73 0-1.37.14-1.94.43s-1.06.69-1.49 1.17c-.42.48-.74 1.04-.98 1.68-.23.65-.38 1.32-.42 2.02h9.16zm5.78-6.16l2.42-.56c1.01-.2 2.24-.3 3.71-.3 1.22 0 2.24.17 3.05.52.82.35 1.47.85 1.95 1.5s.83 1.43 1.03 2.34c.21.9.31 1.9.31 3v8.94h-2.01v-8.29c0-1.13-.08-2.09-.22-2.88-.16-.78-.43-1.42-.79-1.92a3.04 3.04 0 0 0-1.42-1.07c-.58-.21-1.32-.32-2.21-.32-.95 0-1.77.05-2.46.15-.7.1-1.14.2-1.34.28v14.05h-2.02v-15.44zm18.72-.56h6.37v1.7h-6.37v8.51c0 .92.08 1.65.24 2.22.15.57.37 1 .66 1.31s.64.52 1.05.62c.41.11.86.16 1.36.16.85 0 1.53-.1 2.05-.3a9.05 9.05 0 0 0 1.2-.54l.5 1.67c-.29.19-.79.4-1.51.64a7.78 7.78 0 0 1-2.36.36c-.99 0-1.82-.14-2.49-.39-.68-.26-1.21-.65-1.61-1.18-.4-.52-.68-1.18-.85-1.96s-.25-1.71-.25-2.79v-14.73l2.01-.37v5.07zm22.96 8.02c0 1.26-.18 2.4-.54 3.43-.36 1.04-.86 1.91-1.51 2.63-.66.73-1.42 1.29-2.31 1.69s-1.87.6-2.94.6c-1.08 0-2.05-.2-2.94-.6a6.73 6.73 0 0 1-2.3-1.69c-.65-.72-1.16-1.59-1.52-2.63-.36-1.03-.55-2.17-.55-3.43 0-1.25.19-2.4.55-3.44.36-1.03.87-1.91 1.52-2.65a6.76 6.76 0 0 1 2.3-1.7c.89-.39 1.86-.6 2.94-.6 1.07 0 2.05.21 2.94.6.89.4 1.65.97 2.31 1.7.65.74 1.15 1.62 1.51 2.65.36 1.04.54 2.19.54 3.44zm-2.13 0c0-2-.47-3.6-1.4-4.78-.93-1.19-2.18-1.78-3.77-1.78s-2.85.59-3.78 1.78c-.93 1.18-1.39 2.78-1.39 4.78s.46 3.59 1.39 4.76c.93 1.18 2.19 1.77 3.78 1.77s2.84-.59 3.77-1.77c.93-1.17 1.4-2.76 1.4-4.76zm-169.71-29.89l-6.44 1.31c-2.64.44-5.55.66-8.7.66-2.97 0-5.45-.42-7.46-1.29-2-.84-3.61-2.02-4.81-3.52-1.2-1.51-2.07-3.29-2.59-5.4-.52-2.1-.78-4.39-.78-6.9V72.09h8.56v19.39c0 3.95.58 6.78 1.75 8.48 1.14 1.71 3.16 2.55 6.03 2.55l3.31-.14c1.14-.1 2.01-.22 2.57-.36V72.09h8.56v35.87zm19.53 1.12h-8.56V72.09h8.56v36.99zm5.88-52.13l-11.53 11.17-4.25-3.81 10.4-12.38 5.38 5.02zm26.1 32.68c0-3.87-.48-6.65-1.44-8.38-.98-1.72-2.79-2.58-5.41-2.58-.95 0-1.99.06-3.11.2l-2.55.36v29.85h-8.56V73.29c1.64-.46 3.81-.92 6.48-1.34 2.66-.42 5.47-.64 8.44-.64 2.55 0 4.65.32 6.27.98 1.63.66 2.97 1.54 4.06 2.63.52-.38 1.18-.79 1.98-1.21s1.71-.82 2.69-1.18a27.17 27.17 0 0 1 3.15-.88c1.1-.22 2.22-.34 3.35-.34 2.88 0 5.25.42 7.11 1.24 1.87.82 3.33 1.99 4.4 3.47 1.06 1.48 1.78 3.27 2.18 5.37.4 2.11.6 4.39.6 6.9v20.79h-8.56V89.63c0-3.87-.46-6.65-1.4-8.38-.95-1.72-2.77-2.58-5.46-2.58-1.36 0-2.66.22-3.89.66-1.22.46-2.14.9-2.77 1.32.39 1.18.67 2.43.81 3.75s.2 2.73.2 4.23v20.45h-8.57V89.63zm48.75 19.45h-8.56V72.09h8.56v36.99zm.93-47.82c0 1.6-.53 2.87-1.55 3.81a5.31 5.31 0 0 1-3.69 1.42c-1.46 0-2.73-.48-3.75-1.42-1.04-.94-1.56-2.21-1.56-3.81 0-1.64.52-2.95 1.56-3.89 1.02-.94 2.29-1.4 3.75-1.4 1.43 0 2.65.46 3.69 1.4 1.02.94 1.55 2.25 1.55 3.89zm7.92 29.36c0-2.73.42-5.3 1.28-7.68.84-2.39 2.06-4.46 3.65-6.2 1.58-1.74 3.49-3.11 5.75-4.09 2.27-.98 4.82-1.48 7.64-1.48 3.49 0 6.8.64 9.91 1.9l-1.85 7.02c-.98-.42-2.1-.78-3.34-1.06a18.47 18.47 0 0 0-4.01-.42c-3.35 0-5.88 1.04-7.62 3.12-1.75 2.11-2.63 5.06-2.63 8.89 0 3.67.82 6.57 2.49 8.72 1.64 2.15 4.43 3.23 8.34 3.23a22.25 22.25 0 0 0 4.31-.42c1.42-.28 2.65-.64 3.67-1.07l1.2 7.08c-.94.46-2.37.9-4.27 1.29-1.91.38-3.89.56-5.92.56-3.14 0-5.89-.48-8.22-1.47-2.34-.96-4.27-2.3-5.81-4.03-1.55-1.7-2.69-3.77-3.43-6.15-.76-2.39-1.14-4.96-1.14-7.74zm48.46 12.45c2.63 0 4.64-.14 6.02-.42v-9.49c-.48-.14-1.16-.28-2.07-.42-.9-.14-1.88-.22-2.96-.22-.95 0-1.89.08-2.85.22-.98.14-1.85.4-2.63.78-.78.39-1.4.91-1.86 1.59-.49.68-.73 1.54-.73 2.59 0 2.02.65 3.42 1.91 4.21 1.26.78 2.99 1.16 5.17 1.16zm-.72-31.9c2.83 0 5.21.36 7.16 1.06 1.92.7 3.47 1.7 4.63 2.97 1.14 1.26 1.97 2.8 2.47 4.63.5 1.82.74 3.81.74 5.97v22.44c-1.3.28-3.29.63-5.95 1.03-2.67.4-5.7.6-9.05.6-2.2 0-4.23-.22-6.06-.64-1.84-.43-3.4-1.13-4.71-2.07-1.3-.94-2.32-2.17-3.05-3.67-.74-1.5-1.1-3.37-1.1-5.57 0-2.13.42-3.93 1.25-5.4.82-1.46 1.94-2.64 3.36-3.57 1.41-.9 3.05-1.56 4.92-1.96 1.86-.4 3.81-.6 5.83-.6.94 0 1.93.06 2.97.16 1.02.12 2.14.32 3.33.6v-1.41a10.9 10.9 0 0 0-.36-2.82c-.24-.91-.66-1.69-1.25-2.39-.58-.68-1.36-1.2-2.32-1.58-.96-.39-2.19-.57-3.65-.57-1.99 0-3.79.14-5.44.43-1.66.28-3 .6-4.05.98l-1.04-6.92c1.08-.38 2.67-.76 4.73-1.14 2.07-.38 4.29-.56 6.64-.56z" fill-rule="nonzero" fill="#2c4f4f"/></svg>