<svg xmlns="http://www.w3.org/2000/svg" width="320" height="200" shape-rendering="geometricPrecision" image-rendering="optimizeQuality" fill-rule="evenodd" xmlns:v="https://vecta.io/nano"><path d="M0 0h320v200H0z" fill="#fff"/><g fill-rule="nonzero"><path d="M60.81 138.81h-3.64l3.71-17.75h7.21c1.28 0 2.29.15 3.04.45a3.6 3.6 0 0 1 1.77 1.5c.44.7.65 1.53.65 2.5a6.8 6.8 0 0 1-.52 2.62c-.34.85-.77 1.53-1.27 2.03-.51.51-1.05.9-1.63 1.16s-1.36.46-2.35.6c-.57.08-1.64.12-3.21.12h-2.34l-1.42 6.77zM40 110.33h240v2.34H40v-2.34zm22.85 18.74h1.13c1.92 0 3.21-.12 3.85-.36a3.19 3.19 0 0 0 1.53-1.16c.36-.53.55-1.11.55-1.74 0-.43-.1-.77-.28-1.05-.2-.27-.46-.47-.8-.59-.35-.13-1.11-.19-2.3-.19h-2.61l-1.07 5.09zm23.35 4.38h-8.73l-.01.32c0 .87.25 1.56.74 2.09a2.35 2.35 0 0 0 1.8.79c1.17 0 2.08-.59 2.73-1.78l3.1.52c-.61 1.25-1.42 2.18-2.44 2.8-1.01.63-2.15.94-3.41.94-1.74 0-3.14-.55-4.23-1.64-1.08-1.1-1.62-2.55-1.62-4.36 0-1.77.48-3.34 1.46-4.72 1.33-1.86 3.24-2.79 5.71-2.79 1.57 0 2.82.49 3.75 1.46.93.98 1.4 2.34 1.4 4.1 0 .84-.09 1.6-.25 2.27zm-2.93-2.1l.02-.36c0-.96-.22-1.68-.65-2.17-.42-.48-1-.72-1.72-.72s-1.37.27-1.94.82-.95 1.36-1.15 2.43h5.44zm12.9 2.62l3.37.55c-.56 1.5-1.37 2.65-2.46 3.43-1.09.79-2.35 1.18-3.79 1.18-1.63 0-2.93-.49-3.89-1.47s-1.44-2.33-1.44-4.04a9.32 9.32 0 0 1 .87-3.98c.58-1.25 1.46-2.23 2.63-2.95 1.17-.71 2.45-1.07 3.85-1.07 1.51 0 2.72.4 3.62 1.19.91.8 1.42 1.84 1.53 3.14l-3.3.35c-.08-.72-.3-1.25-.66-1.59s-.83-.51-1.41-.51c-.67 0-1.3.25-1.87.75-.59.5-1.03 1.26-1.34 2.26s-.47 1.93-.47 2.81c0 .76.19 1.35.55 1.76.38.42.84.62 1.4.62.55 0 1.09-.2 1.6-.6.52-.41.92-1.02 1.21-1.83zm7.9-8.03h3.48l-1.72 7.64-.32 1.71a1.37 1.37 0 0 0 .38.96c.24.27.56.4.95.4a1.99 1.99 0 0 0 .82-.18c.27-.12.55-.31.83-.55a4.81 4.81 0 0 0 .77-.85c.23-.32.44-.74.64-1.26.13-.38.3-.96.47-1.73l1.39-6.14h3.47l-2.92 12.87h-3.24l.34-1.65c-1.31 1.31-2.73 1.97-4.27 1.97-.97 0-1.74-.3-2.29-.91-.56-.61-.84-1.43-.84-2.45 0-.44.15-1.33.45-2.65l1.61-7.18zm17.24 3.6l-3.4-.29c.39-1.14 1.07-2.03 2.04-2.67.96-.64 2.24-.96 3.84-.96 1.65 0 2.88.33 3.67 1s1.19 1.48 1.19 2.45a7.73 7.73 0 0 1-.1 1.23l-.73 3.45c-.34 1.53-.51 2.61-.51 3.23 0 .55.1 1.16.29 1.83h-3.39c-.13-.47-.21-.96-.25-1.46-.5.57-1.09 1.01-1.75 1.32s-1.33.46-2 .46c-1.07 0-1.95-.35-2.64-1.05-.7-.7-1.04-1.61-1.04-2.71 0-1.23.37-2.22 1.14-2.95.76-.74 2.13-1.19 4.09-1.34 1.66-.14 2.77-.31 3.32-.5.15-.49.22-.88.22-1.17 0-.37-.15-.68-.45-.93-.3-.26-.74-.38-1.33-.38-.62 0-1.11.12-1.47.38-.36.24-.61.6-.74 1.06zm3.31 3.24c-.21.06-.49.12-.83.17-1.75.21-2.89.52-3.42.93-.38.29-.57.69-.57 1.19 0 .41.14.75.44 1.04.29.28.67.42 1.14.42.53 0 1.03-.13 1.49-.39s.81-.59 1.04-.99c.23-.41.43-1.04.61-1.9l.1-.47zm-.04-12.14h3.7l-3.92 3.64h-2.31l2.53-3.64zm8.11 5.3h3.26l-.49 2.42c1.2-1.83 2.49-2.74 3.9-2.74.49 0 1.02.12 1.59.37l-1.34 2.85c-.31-.11-.65-.17-1.01-.17-.6 0-1.2.23-1.82.68s-1.11 1.06-1.45 1.82c-.35.76-.7 1.96-1.04 3.6l-.83 4.04h-3.47l2.7-12.87zm10.87-4.88h3.47l-.66 3.15h-3.47l.66-3.15zm-1.03 4.88h3.48l-2.7 12.87h-3.47l2.69-12.87zm9.11 3.6l-3.4-.29c.39-1.14 1.07-2.03 2.03-2.67.97-.64 2.25-.96 3.84-.96 1.66 0 2.89.33 3.68 1s1.18 1.48 1.18 2.45a7.73 7.73 0 0 1-.1 1.23l-.72 3.45c-.34 1.53-.51 2.61-.51 3.23 0 .55.1 1.16.29 1.83h-3.39c-.13-.47-.22-.96-.25-1.46a5.47 5.47 0 0 1-1.76 1.32c-.66.31-1.33.46-2 .46-1.06 0-1.94-.35-2.64-1.05-.69-.7-1.04-1.61-1.04-2.71 0-1.23.38-2.22 1.15-2.95.76-.74 2.12-1.19 4.09-1.34 1.65-.14 2.76-.31 3.32-.5.14-.49.22-.88.22-1.17 0-.37-.15-.68-.45-.93-.3-.26-.75-.38-1.34-.38-.62 0-1.11.12-1.47.38-.36.24-.61.6-.73 1.06zm3.31 3.24c-.21.06-.49.12-.84.17-1.74.21-2.88.52-3.42.93-.38.29-.57.69-.57 1.19 0 .41.15.75.44 1.04.29.28.68.42 1.15.42a2.95 2.95 0 0 0 1.48-.39c.47-.26.82-.59 1.05-.99.23-.41.43-1.04.61-1.9l.1-.47zm13.02.31l3.48-.18c.05 1.1.24 1.84.57 2.23.53.63 1.51.94 2.95.94 1.2 0 2.06-.21 2.6-.64.53-.43.79-.95.79-1.56 0-.52-.22-.97-.65-1.33-.31-.27-1.15-.7-2.52-1.3l-3.02-1.5c-.63-.4-1.13-.92-1.49-1.56-.37-.64-.55-1.39-.55-2.24 0-1.5.54-2.75 1.63-3.74 1.08-.98 2.64-1.47 4.7-1.47 2.08 0 3.69.48 4.83 1.46s1.77 2.28 1.88 3.91l-3.49.15c-.09-.84-.4-1.49-.92-1.95-.52-.45-1.3-.67-2.33-.67-1 0-1.72.17-2.15.53-.44.35-.65.8-.65 1.35a1.58 1.58 0 0 0 .59 1.26c.4.34 1.27.8 2.62 1.39 2.04.89 3.34 1.6 3.9 2.15.83.81 1.24 1.85 1.24 3.12 0 1.57-.62 2.91-1.86 4.02s-2.96 1.67-5.17 1.67c-1.52 0-2.85-.26-3.97-.77-1.11-.51-1.9-1.22-2.36-2.13s-.68-1.96-.65-3.14zm18.79-7.15h3.47l-1.72 7.64-.31 1.71a1.36 1.36 0 0 0 .37.96c.25.27.57.4.96.4a2.06 2.06 0 0 0 .82-.18c.27-.12.54-.31.83-.55a5.23 5.23 0 0 0 .77-.85c.22-.32.43-.74.63-1.26.14-.38.3-.96.48-1.73l1.38-6.14h3.47l-2.92 12.87h-3.24l.35-1.65c-1.31 1.31-2.73 1.97-4.27 1.97-.97 0-1.74-.3-2.3-.91-.55-.61-.84-1.43-.84-2.45 0-.44.15-1.33.45-2.65l1.62-7.18zm24.2 12.87h-3.3l.29-1.38c-.62.61-1.24 1.04-1.85 1.31-.61.26-1.3.39-2.07.39-1.33 0-2.41-.45-3.23-1.37-.83-.9-1.24-2.25-1.24-4.04 0-2.06.59-3.93 1.77-5.6 1.17-1.67 2.73-2.5 4.67-2.5 1.75 0 3.07.69 3.94 2.07l1.44-6.63h3.47l-3.89 17.75zm-8.03-5.22c0 .92.23 1.64.7 2.16a2.25 2.25 0 0 0 1.74.78c.63 0 1.23-.22 1.78-.65s.99-1.1 1.32-1.99.5-1.75.5-2.57c0-.93-.26-1.68-.76-2.26-.51-.57-1.09-.86-1.75-.86-1.03 0-1.88.56-2.54 1.7s-.99 2.36-.99 3.69zm23.83-.14h-8.74l-.01.32c0 .87.25 1.56.74 2.09s1.1.79 1.8.79c1.17 0 2.08-.59 2.73-1.78l3.1.52c-.61 1.25-1.42 2.18-2.43 2.8-1.02.63-2.16.94-3.42.94-1.73 0-3.14-.55-4.22-1.64-1.09-1.1-1.63-2.55-1.63-4.36 0-1.77.48-3.34 1.46-4.72 1.34-1.86 3.24-2.79 5.71-2.79 1.58 0 2.83.49 3.76 1.46.93.98 1.39 2.34 1.39 4.1 0 .84-.08 1.6-.24 2.27zm-2.93-2.1l.01-.36c0-.96-.22-1.68-.65-2.17-.42-.48-1-.72-1.72-.72s-1.36.27-1.93.82-.96 1.36-1.16 2.43h5.45zm3.74 3.88l3.38-.54c.29.72.67 1.22 1.11 1.52.44.29 1.04.44 1.8.44.79 0 1.43-.18 1.9-.54.33-.24.49-.54.49-.89 0-.24-.08-.45-.25-.63-.18-.18-.66-.4-1.44-.66-2.09-.7-3.38-1.25-3.88-1.65-.78-.63-1.17-1.46-1.17-2.48s.38-1.9 1.13-2.64c1.06-1.03 2.62-1.54 4.7-1.54 1.65 0 2.9.31 3.74.91.85.61 1.38 1.43 1.61 2.47l-3.2.56c-.17-.47-.44-.83-.82-1.06-.51-.32-1.13-.48-1.85-.48-.73 0-1.25.12-1.56.37-.32.24-.48.52-.48.84s.16.59.48.8c.2.13.85.36 1.94.68 1.69.5 2.82.98 3.39 1.46.81.67 1.21 1.48 1.21 2.43 0 1.22-.51 2.28-1.54 3.18-1.02.9-2.46 1.35-4.33 1.35-1.85 0-3.28-.34-4.29-1.02-1.02-.68-1.7-1.64-2.07-2.88zm15.13-6.71l.52-2.58h1.71l.42-2.01 3.93-2.4-.9 4.41h2.11l-.52 2.58h-2.11l-1.13 5.43-.31 1.66c0 .27.08.48.25.63s.47.22.91.22c.16 0 .54-.02 1.15-.08l-.55 2.57a9.16 9.16 0 0 1-1.83.18c-1.22 0-2.11-.24-2.67-.71-.55-.48-.83-1.14-.83-1.98 0-.4.16-1.31.47-2.73l1.1-5.19h-1.72zm19.89 4.93h-8.73l-.01.32c0 .87.24 1.56.74 2.09a2.35 2.35 0 0 0 1.8.79c1.16 0 2.07-.59 2.73-1.78l3.09.52c-.6 1.25-1.41 2.18-2.43 2.8-1.02.63-2.15.94-3.42.94-1.73 0-3.14-.55-4.22-1.64-1.09-1.1-1.63-2.55-1.63-4.36 0-1.77.49-3.34 1.47-4.72 1.33-1.86 3.23-2.79 5.71-2.79 1.57 0 2.82.49 3.75 1.46.93.98 1.39 2.34 1.39 4.1 0 .84-.08 1.6-.24 2.27zm-2.93-2.1l.01-.36c0-.96-.21-1.68-.64-2.17-.43-.48-1-.72-1.72-.72s-1.37.27-1.94.82-.95 1.36-1.16 2.43h5.45z" fill="#145a9d"/><path d="M191.24 104.98h-27.39c-7.05 0-14.17-5.72-15.67-12.77l-6.63-31.34h27.37c7.05 0 14.17 5.71 15.67 12.76l6.65 31.35z" fill="#008652"/><path d="M217.69 90.27l.33-3.01 1.62-7.56c.78-3.31-2.55-4.57-5.54-4.57-1.64 0-3.58.18-5.26.88-1.63.67-2.98 1.87-3.4 3.95h5.25c.16-.87.88-2.19 2.24-2.25 2.24-.09 1.55 1.79 1.27 3.07h-1.76c-4.8 0-8.4 1.47-9.22 5.04-.71 3.02.7 4.89 4.18 4.89 2.76 0 4.31-1.38 5.21-2.43h.06c-.23 1.05-.33 1.52-.31 1.99h5.33zm-91.88-14.7h-5.5c-.2 1.58-.36 2.46-.64 3.78l-2.35 10.92h5.56l1.82-8.43c.04-.18.33-3.19 3.09-3.19 1.72 0 1.74 1.55 1.49 2.98l-1.86 8.64h5.56l1.82-8.43c.04-.18.34-3.19 3.09-3.19 1.73 0 1.74 1.55 1.49 2.98l-1.86 8.64h5.57l2.12-9.84c.7-3.25-1.21-5.3-4.37-5.3-2.21.06-4.44 1.06-5.82 2.81-.23-1.78-2.04-2.72-3.83-2.72-2.2 0-4.29.76-5.75 2.78h-.06l.43-2.43zm-9.46 14.7l.88-4.1h-10.25l.97-4.48h9.43l.88-4.1h-9.43l.94-4.36h10.25l.88-4.1h-16.1l-4.56 21.14h16.11zm92.31-4.71c.22-1.03.98-1.55 1.89-1.96.84-.39 1.94-.33 3.11-.33-.42 1.96-1.11 4.22-3.51 4.22-1.06 0-1.72-.88-1.49-1.93zm-12.86-7.21c2.34 0 2.11 2.7 1.71 4.57-.41 1.88-1.34 4.57-3.68 4.57s-2.11-2.69-1.71-4.57c.4-1.87 1.33-4.57 3.68-4.57zm-2.1-2.78h-5.56l-4.38 20.32h5.57l1.59-7.38h.05c.75 1.29 2.05 2.2 3.69 2.2 4.71 0 7.67-3.69 8.6-7.99.83-3.87-.27-7.59-4.63-7.59-2.17 0-3.83.79-5.32 2.52h-.05l.44-2.08z" fill="#145a9d"/><path d="M168.68 75.57h-5.65l-.63 3.78-2.36 10.92h5.57l1.26-5.88c.52-2.82 1.89-4.54 4.79-4.57l1.17.03 1.01-4.72c-2.44-.06-4.43.76-5.6 3.19h-.06l.5-2.75zm-15.44 2.78c2.37 0 2.05 2.7 1.66 4.51-.41 1.91-1.41 4.63-3.84 4.63-2.02 0-1.93-2.72-1.58-4.36.43-1.97 1.24-4.78 3.76-4.78zm-10.86 11.92h5.42l.61-2.17h.12c.06 1.5 1.84 2.61 3.54 2.61 4.86 0 7.61-3.54 8.58-8.02.89-4.16-.39-7.56-4.9-7.56-1.67 0-3.61.68-4.91 1.99h-.06l1.72-7.99h-5.56l-4.56 21.14zm34.44-4.71c.22-1.03.98-1.55 1.89-1.96.84-.39 1.94-.33 3.11-.33-.42 1.96-1.11 4.22-3.51 4.22-1.06 0-1.72-.88-1.49-1.93zm9.03 4.71c.17-1.76.19-2.4.33-3.01l1.62-7.56c.78-3.31-2.55-4.57-5.54-4.57-1.64 0-3.58.18-5.26.88-1.63.67-2.98 1.87-3.4 3.95h5.25c.16-.87.88-2.19 2.24-2.25 2.24-.09 1.55 1.79 1.27 3.07h-1.76c-4.8 0-8.4 1.47-9.22 5.04-.71 3.02.7 4.89 4.18 4.89 2.76 0 4.31-1.38 5.21-2.43h.06c-.22 1.05-.33 1.52-.31 1.99h5.33z" fill="#fefefe"/></g></svg>