<svg xmlns="http://www.w3.org/2000/svg" width="320" height="200" shape-rendering="geometricPrecision" image-rendering="optimizeQuality" fill-rule="evenodd" xmlns:v="https://vecta.io/nano"><path d="M0 0h320v200H0z" fill="#fff"/><g fill-rule="nonzero"><path d="M222.73 144.29h-55c-14.16 0-28.45-11.48-31.46-25.64l-13.32-62.94h54.96c14.16 0 28.46 11.48 31.47 25.63l13.35 62.95z" fill="#008652"/><path d="M275.85 114.76l.65-6.06 3.27-15.17c1.55-6.64-5.14-9.17-11.14-9.17-3.29 0-7.19.35-10.55 1.76-3.29 1.35-5.98 3.76-6.82 7.94h10.52c.32-1.76 1.77-4.41 4.51-4.53 4.5-.17 3.1 3.59 2.55 6.18h-3.53c-9.64 0-16.87 2.94-18.53 10.11-1.42 6.06 1.42 9.82 8.41 9.82 5.53 0 8.65-2.76 10.46-4.88h.12c-.46 2.12-.66 3.06-.62 4h10.7zM91.35 85.24H80.29c-.39 3.18-.71 4.94-1.28 7.58l-4.73 21.94h11.18l3.65-16.94c.07-.35.67-6.41 6.2-6.41 3.47 0 3.5 3.12 3 6l-3.74 17.35h11.17l3.65-16.94c.08-.35.68-6.41 6.21-6.41 3.47 0 3.5 3.12 3 6l-3.74 17.35h11.17L130.29 95c1.4-6.53-2.41-10.64-8.77-10.64-4.43.12-8.92 2.12-11.68 5.64-.46-3.58-4.11-5.47-7.7-5.47-4.41 0-8.62 1.53-11.55 5.59h-.12l.88-4.88zm-19.01 29.52l1.77-8.23H53.53l1.94-9H74.4l1.78-8.23H57.24l1.89-8.76h20.58l1.77-8.23H49.14L40 114.76h32.34zm185.38-9.47c.44-2.06 1.96-3.11 3.78-3.94 1.7-.76 3.91-.65 6.26-.65-.85 3.94-2.24 8.47-7.06 8.47-2.12 0-3.44-1.76-2.98-3.88zm-25.83-14.46c4.7 0 4.24 5.41 3.43 9.17s-2.68 9.17-7.39 9.17c-4.7 0-4.24-5.41-3.43-9.17s2.68-9.17 7.39-9.17zm-4.21-5.59h-11.17l-8.8 40.81h11.18l3.19-14.82h.12c1.5 2.59 4.1 4.41 7.4 4.41 9.46 0 15.41-7.41 17.27-16.05 1.68-7.76-.54-15.23-9.3-15.23-4.35 0-7.69 1.58-10.67 5.05h-.12l.9-4.17z" fill="#145a9d"/><path d="M177.44 85.24h-11.35l-1.28 7.59-4.73 21.93h11.18l2.54-11.82c1.04-5.65 3.79-9.12 9.62-9.17.77 0 1.53 0 2.34.05l2.04-9.46c-4.91-.12-8.91 1.53-11.26 6.41h-.12l1.02-5.53zm-31.03 5.59c4.77 0 4.13 5.41 3.35 9.05-.83 3.82-2.83 9.29-7.71 9.29-4.06 0-3.88-5.47-3.17-8.76.85-3.94 2.48-9.58 7.53-9.58zm-21.79 23.93h10.88l1.23-4.35h.23c.12 3 3.7 5.23 7.11 5.23 9.76 0 15.29-7.11 17.23-16.11 1.8-8.35-.79-15.17-9.85-15.17-3.35 0-7.23 1.35-9.85 4h-.12l3.46-16.06h-11.18l-9.14 42.46zm69.16-9.47c.44-2.06 1.96-3.11 3.79-3.94 1.69-.76 3.9-.65 6.25-.65-.85 3.95-2.23 8.47-7.06 8.47-2.11 0-3.44-1.76-2.98-3.88zm18.13 9.47c.35-3.53.39-4.82.66-6.06l3.26-15.17c1.55-6.64-5.14-9.17-11.13-9.17-3.3 0-7.2.35-10.56 1.76-3.29 1.35-5.98 3.76-6.82 7.94h10.52c.32-1.76 1.78-4.41 4.51-4.53 4.5-.17 3.1 3.59 2.55 6.18h-3.53c-9.64 0-16.86 2.94-18.53 10.11-1.42 6.06 1.42 9.82 8.41 9.82 5.53 0 8.66-2.76 10.46-4.88h.12c-.45 2.12-.66 3.06-.62 4h10.7z" fill="#fefefe"/></g></svg>