<svg xmlns="http://www.w3.org/2000/svg" width="600" height="600" shape-rendering="geometricPrecision" image-rendering="optimizeQuality" fill-rule="evenodd" xmlns:v="https://vecta.io/nano"><defs><mask id="A"><radialGradient id="B" cx="300" cy="300" r="283.69" fx="300" fy="300" href="#F"><stop offset="0" stop-color="#fff"/><stop offset="1" stop-opacity="0" stop-color="#fff"/></radialGradient><path d="M-1.18-1.18h602.36v602.36H-1.18z" fill="url(#B)"/></mask><linearGradient id="C" x1="224.82" y1="307.5" x2="456.65" y2="397.74" href="#F"><stop offset="0" stop-color="#8682ab"/><stop offset="1" stop-color="#1c7d9a"/></linearGradient><radialGradient id="D" gradientTransform="matrix(2.06871 -1.69765 1.69765 2.06871 -907 -193)" cx="159.5" cy="434.11" r="98.79" fx="159.5" fy="434.11" href="#F"><stop offset="0" stop-color="#1c7d9a"/><stop offset="1" stop-color="#274c77"/></radialGradient><radialGradient id="E" gradientTransform="matrix(2.06869 -1.69764 1.69764 2.06869 -1433 187)" cx="459.37" cy="554.76" r="40.35" fx="459.37" fy="554.76" href="#F"><stop offset="0" stop-color="#1c7d9a"/><stop offset="1" stop-color="#274c77"/></radialGradient><linearGradient id="F" gradientUnits="userSpaceOnUse"/></defs><path d="M0 0h600v600H0z" fill="url(#C)" mask="url(#A)"/><g fill-rule="nonzero"><path d="M200.58 61.17c53.56 0 102.04 21.71 137.14 56.8 35.1 35.1 56.81 83.59 56.81 137.14s-21.71 102.04-56.81 137.14c-35.1 35.09-83.58 56.8-137.14 56.8-53.55 0-102.04-21.71-137.13-56.8-35.1-35.1-56.81-83.59-56.81-137.14s21.71-102.04 56.81-137.14c35.09-35.09 83.58-56.8 137.13-56.8zm124.84 69.11c-31.95-31.95-76.08-51.71-124.84-51.71-48.75 0-92.89 19.76-124.83 51.71-31.95 31.94-51.71 76.08-51.71 124.83S43.8 348 75.75 379.95c31.94 31.94 76.08 51.7 124.83 51.7 48.76 0 92.89-19.76 124.84-51.7 31.95-31.95 51.71-76.09 51.71-124.84s-19.76-92.89-51.71-124.83z" fill="#8682ab"/><path d="M399.42 139.88c53.55 0 102.04 21.71 137.13 56.81 35.1 35.1 56.81 83.58 56.81 137.14 0 53.55-21.71 102.04-56.81 137.14-35.09 35.09-83.58 56.8-137.13 56.8-53.56 0-102.04-21.71-137.14-56.8-35.1-35.1-56.81-83.59-56.81-137.14 0-53.56 21.71-102.04 56.81-137.14s83.58-56.81 137.14-56.81zm124.83 69.11c-31.94-31.94-76.08-51.7-124.83-51.7-48.76 0-92.89 19.76-124.84 51.7-31.95 31.95-51.71 76.09-51.71 124.84s19.76 92.89 51.71 124.83c31.95 31.95 76.08 51.71 124.84 51.71 48.75 0 92.89-19.76 124.83-51.71 31.95-31.94 51.71-76.08 51.71-124.83s-19.76-92.89-51.71-124.84z" fill="#718fc8"/></g><circle cx="425.13" cy="71.9" r="28.21" stroke="#d2d3d5" stroke-width="12" fill="none"/><path d="M83.06 490.62l10.54 6.08 10.53 6.08v12.17 12.16l-10.53 6.08-10.54 6.08-10.53-6.08L62 527.11v-12.16-12.17l10.53-6.08z" fill="#e7e1f0"/><path d="M123.05 506.81l6.13 3.54 6.12 3.54v7.08 7.07l-6.12 3.54-6.13 3.54-6.13-3.54-6.13-3.54v-7.07-7.08l6.13-3.54zM64.37 42.77l6.13 3.54 6.13 3.53v7.08V64l-6.13 3.54-6.13 3.54-6.13-3.54L52.12 64v-7.08-7.08l6.12-3.53z" fill="#f2e5f1"/><path d="M494.88 480.52c22.28 0 40.35 18.07 40.35 40.35s-18.07 40.35-40.35 40.35-40.35-18.07-40.35-40.35 18.07-40.35 40.35-40.35z" fill="url(#E)"/><path d="M494.88 466.52c15 0 28.59 6.09 38.43 15.92 9.83 9.84 15.92 23.43 15.92 38.43 0 15.01-6.09 28.59-15.92 38.43-9.84 9.83-23.43 15.92-38.43 15.92-15.01 0-28.59-6.09-38.43-15.92-9.83-9.84-15.92-23.42-15.92-38.43 0-15 6.09-28.59 15.92-38.43 9.84-9.83 23.42-15.92 38.43-15.92zm0 14c22.28 0 40.35 18.07 40.35 40.35s-18.07 40.35-40.35 40.35-40.35-18.07-40.35-40.35 18.07-40.35 40.35-40.35z" fill="#fefefe"/><path d="M57 113.59c13.57 0 24.58 11 24.58 24.58S70.57 162.75 57 162.75c-13.58 0-24.58-11-24.58-24.58s11-24.58 24.58-24.58z" fill="url(#E)"/><path d="M57 99.59c10.6 0 20.24 4.33 27.25 11.33l.03-.03c6.98 6.98 11.3 16.63 11.3 27.28s-4.32 20.3-11.3 27.28-16.63 11.3-27.28 11.3-20.3-4.32-27.28-11.3a11.62 11.62 0 0 1-.89-.97c-6.46-6.92-10.41-16.18-10.41-26.31 0-10.59 4.31-20.21 11.3-27.22.01-.01.02-.02.02-.03l.03-.03c.01-.01.02-.02.04-.03 7-6.97 16.61-11.27 27.19-11.27zm0 14c13.57 0 24.58 11 24.58 24.58S70.57 162.75 57 162.75c-13.58 0-24.58-11-24.58-24.58s11-24.58 24.58-24.58zm243 12.83c47.93 0 91.33 19.43 122.74 50.84s50.84 74.81 50.84 122.74-19.43 91.33-50.84 122.74-74.81 50.84-122.74 50.84-91.33-19.43-122.74-50.84-50.84-74.81-50.84-122.74 19.43-91.33 50.84-122.74 74.81-50.84 122.74-50.84zm0 14c88.13 0 159.58 71.45 159.58 159.58S388.13 459.58 300 459.58 140.42 388.13 140.42 300 211.87 140.42 300 140.42z" fill="#fefefe"/><circle cx="300" cy="300" r="159.65" fill="url(#D)"/><path d="M356.48 367.45c-7.19 0-13.88-1.32-20.06-3.95-6.17-2.64-11.48-6.21-15.91-10.71-4.44-4.49-7.92-9.77-10.44-15.83-2.52-6.05-3.78-12.5-3.78-19.33v-.36c0-6.84 1.26-13.31 3.78-19.43s6-11.45 10.44-16.01c4.43-4.56 9.74-8.15 15.91-10.79 6.18-2.64 12.99-3.96 20.42-3.96 9.11 0 16.67 1.44 22.67 4.32 5.99 2.88 11.27 6.83 15.82 11.87l-16.72 17.99c-3.12-3.24-6.33-5.82-9.63-7.74s-7.4-2.88-12.32-2.88c-3.48 0-6.62.69-9.44 2.07s-5.28 3.27-7.38 5.67-3.72 5.19-4.85 8.37c-1.14 3.17-1.71 6.56-1.71 10.16v.36c0 3.71.57 7.19 1.71 10.43 1.13 3.24 2.78 6.06 4.94 8.45 2.16 2.4 4.74 4.29 7.74 5.67 2.99 1.38 6.35 2.07 10.07 2.07 4.56 0 8.54-.93 11.96-2.79s6.81-4.35 10.17-7.46l16 16.18c-4.67 5.16-10.01 9.39-16 12.69-6 3.29-13.8 4.94-23.39 4.94zM216.42 227.84h-11.88v-1.19l6.5-7.37c1.08-1.25 1.82-2.27 2.24-3.08.41-.81.62-1.59.62-2.35 0-1.2-.35-2.15-1.05-2.85s-1.67-1.05-2.9-1.05c-1.28 0-2.31.41-3.1 1.22-.78.82-1.17 1.88-1.17 3.18h-1.55c0-1.06.23-2.04.72-2.91a5.13 5.13 0 0 1 2.06-2.07c.89-.5 1.9-.75 3.04-.75 1.73 0 3.09.46 4.06 1.37.98.91 1.47 2.15 1.47 3.72 0 .89-.28 1.86-.83 2.91s-1.52 2.36-2.91 3.93l-5.29 5.99h9.97v1.3zm14.07-14.08c0 .98-.29 1.86-.86 2.64a5.05 5.05 0 0 1-2.27 1.71c1.09.37 1.97.98 2.63 1.82.66.82.99 1.79.99 2.89 0 1.63-.55 2.91-1.65 3.86-1.1.96-2.56 1.43-4.38 1.43-1.83 0-3.29-.47-4.39-1.42-1.09-.95-1.65-2.24-1.65-3.87 0-1.08.32-2.04.96-2.88.63-.85 1.5-1.46 2.6-1.83a4.81 4.81 0 0 1-2.24-1.71c-.56-.78-.84-1.66-.84-2.64 0-1.57.51-2.82 1.52-3.75s2.35-1.39 4.02-1.39 3.01.47 4.03 1.4c1.02.94 1.53 2.19 1.53 3.74zm-1.07 9.08c0-1.19-.42-2.16-1.26-2.92s-1.92-1.14-3.23-1.14-2.39.37-3.22 1.12-1.25 1.73-1.25 2.94c0 1.2.4 2.17 1.21 2.89.81.71 1.91 1.07 3.28 1.07 1.35 0 2.43-.35 3.25-1.07.81-.71 1.22-1.68 1.22-2.89zm-.49-9.09c0-1.08-.38-1.99-1.13-2.71-.75-.73-1.71-1.09-2.87-1.09-1.18 0-2.14.35-2.87 1.05-.74.7-1.1 1.62-1.1 2.75 0 1.11.36 2 1.1 2.68.73.68 1.69 1.02 2.88 1.02 1.17 0 2.13-.35 2.87-1.03s1.12-1.57 1.12-2.67zm-24.8 27.79H300v25h-68.17v27.16h60.08v25.01h-60.08v48.74h-27.7V241.54zm304.96 296.3c-1.81 0-3.49-.33-5.05-1-1.55-.66-2.89-1.56-4-2.69-1.12-1.13-1.99-2.46-2.63-3.98-.63-1.52-.95-3.15-.95-4.87v-.09c0-1.72.32-3.34.95-4.88.64-1.54 1.51-2.88 2.63-4.03 1.11-1.15 2.45-2.05 4-2.71 1.56-.67 3.27-1 5.14-1 2.29 0 4.19.36 5.7 1.09 1.51.72 2.83 1.71 3.98 2.98l-4.21 4.53c-.78-.82-1.59-1.47-2.42-1.95s-1.86-.72-3.1-.72c-.87 0-1.66.17-2.37.52-.71.34-1.33.82-1.86 1.42-.53.61-.93 1.31-1.22 2.11s-.43 1.65-.43 2.55v.09c0 .94.14 1.81.43 2.63.29.81.7 1.52 1.24 2.13.55.6 1.2 1.07 1.95 1.42s1.6.52 2.53.52c1.15 0 2.15-.23 3.01-.7s1.72-1.09 2.56-1.88l4.03 4.07a15.26 15.26 0 0 1-4.03 3.19c-1.51.83-3.47 1.25-5.88 1.25zm-35.24-35.12h-2.98v-.3l1.63-1.86c.27-.31.46-.57.56-.77a1.22 1.22 0 0 0 .16-.59c0-.3-.09-.54-.26-.72-.18-.17-.43-.26-.73-.26-.32 0-.58.1-.78.31-.2.2-.3.47-.3.79h-.39c0-.26.06-.51.18-.73s.3-.39.52-.52c.22-.12.48-.19.77-.19.43 0 .77.12 1.02.35.24.23.37.54.37.93 0 .23-.07.47-.21.74-.14.26-.38.59-.73.99l-1.33 1.5h2.5v.33zm3.54-3.54c0 .24-.07.46-.21.66a1.35 1.35 0 0 1-.57.43c.27.09.49.25.66.46.16.21.25.45.25.72 0 .41-.14.74-.42.98s-.64.36-1.1.36-.83-.12-1.1-.36c-.28-.24-.42-.56-.42-.98 0-.27.08-.51.24-.72a1.32 1.32 0 0 1 .66-.46 1.24 1.24 0 0 1-.57-.43c-.14-.2-.21-.42-.21-.66 0-.4.13-.71.38-.95.26-.23.6-.35 1.01-.35.42 0 .76.12 1.02.36.26.23.38.55.38.94zm-.27 2.28a.93.93 0 0 0-.31-.73c-.21-.2-.49-.29-.82-.29s-.6.09-.8.28a.96.96 0 0 0-.32.74c0 .3.1.55.31.73.2.18.47.27.82.27.34 0 .61-.09.82-.27.2-.18.3-.42.3-.73zm-.12-2.29c0-.27-.09-.5-.28-.68s-.43-.27-.73-.27c-.29 0-.53.09-.72.26-.18.18-.27.41-.27.69s.09.51.27.68c.19.17.43.25.73.25.29 0 .53-.08.72-.25.19-.18.28-.4.28-.68zm-6.24 6.99h24.12v6.29h-17.15v6.84h15.11v6.29h-15.11v12.26h-6.97v-31.68z" fill-rule="nonzero" fill="#cce2ed"/></svg>