<svg xmlns="http://www.w3.org/2000/svg" width="320" height="200" shape-rendering="geometricPrecision" image-rendering="optimizeQuality" fill-rule="evenodd" xmlns:v="https://vecta.io/nano"><defs><linearGradient id="A" gradientUnits="userSpaceOnUse" x1="78.26" y1="70.69" x2="212.4" y2="70.69"><stop offset="0" stop-color="#faee40"/><stop offset="1" stop-color="#37c6f4"/></linearGradient><linearGradient id="B" gradientUnits="userSpaceOnUse" x1="82.26" y1="63.75" x2="212.96" y2="63.75"><stop offset="0" stop-color="#ed3237"/><stop offset="1" stop-color="#faee3e"/></linearGradient><linearGradient id="C" gradientUnits="userSpaceOnUse" x1="74.25" y1="77.62" x2="205.77" y2="77.62"><stop offset="0" stop-color="#37c3f2"/><stop offset=".459" stop-color="#5885c6"/><stop offset="1" stop-color="#7a4699"/></linearGradient></defs><path d="M0 0h320v200H0z" fill="#fff"/><g fill-rule="nonzero"><path d="M257.13 145.59c3.35 0 5.86-.55 7.56-1.65 1.7-1.09 2.55-2.79 2.55-5.09 0-4.54-3.37-6.81-10.11-6.81h-14.8v13.55h14.8zm-14.8-35.71v12.92h12.61c3.13 0 5.51-.55 7.13-1.64 1.62-1.1 2.43-2.72 2.43-4.86s-.81-3.75-2.43-4.82-4-1.6-7.13-1.6h-12.61zm-41.61 46.2c-4.33 0-8.52-.58-12.57-1.76-4.04-1.17-7.29-2.7-9.75-4.58l4.31-9.55c2.35 1.72 5.14 3.1 8.38 4.14 3.24 1.05 6.47 1.57 9.71 1.57 3.6 0 6.26-.53 7.99-1.6 1.72-1.07 2.58-2.5 2.58-4.27 0-1.31-.51-2.39-1.53-3.25s-2.32-1.55-3.91-2.08c-1.59-.52-3.75-1.09-6.46-1.72-4.18-.99-7.6-1.98-10.26-2.98a16.63 16.63 0 0 1-6.85-4.77c-1.91-2.19-2.86-5.12-2.86-8.77 0-3.19.86-6.07 2.58-8.66 1.73-2.58 4.32-4.63 7.79-6.14 3.48-1.52 7.72-2.27 12.73-2.27 3.5 0 6.92.41 10.26 1.25 3.34.83 6.26 2.03 8.77 3.6l-3.92 9.63c-5.06-2.87-10.12-4.3-15.19-4.3-3.55 0-6.17.57-7.87 1.72s-2.54 2.66-2.54 4.54.98 3.28 2.93 4.19c1.96.91 4.95 1.81 8.97 2.7 4.18.99 7.59 1.99 10.26 2.98 2.66.99 4.94 2.56 6.85 4.7s2.86 5.03 2.86 8.69a15.01 15.01 0 0 1-2.62 8.57c-1.75 2.59-4.38 4.64-7.88 6.15-3.49 1.52-7.75 2.27-12.76 2.27zm-28.13-11.12v10.18h-42.44v-54.81h41.42v10.18h-28.81v11.9h25.45v9.87h-25.45v12.68h29.83zm-69.49 2.59c2.09 0 3.94-.49 5.56-1.45 1.62-.97 2.77-2.39 3.45-4.27v-4.31h-8.38c-5.01 0-7.52 1.65-7.52 4.94 0 1.56.61 2.8 1.84 3.72 1.23.91 2.91 1.37 5.05 1.37zm.94-35.16c6.53 0 11.54 1.55 15.04 4.66 3.5 3.1 5.24 7.79 5.24 14.05v24.04h-11.43v-5.24c-2.3 3.91-6.58 5.87-12.84 5.87-3.24 0-6.04-.55-8.42-1.65-2.38-1.09-4.19-2.61-5.44-4.54-1.26-1.93-1.88-4.12-1.88-6.58 0-3.91 1.47-6.99 4.42-9.24 2.95-2.24 7.51-3.36 13.67-3.36h9.71c0-2.67-.81-4.71-2.43-6.15s-4.05-2.15-7.28-2.15c-2.25 0-4.45.35-6.62 1.05-2.17.71-4.01 1.66-5.52 2.86l-4.39-8.53c2.3-1.62 5.06-2.88 8.27-3.76 3.21-.89 6.51-1.33 9.9-1.33zM40 100.33h12.69v44.48h27.48v10.33H40v-54.81zm229.98 26.31c3.13.99 5.58 2.65 7.36 4.97 1.77 2.32 2.66 5.18 2.66 8.58 0 4.8-1.87 8.49-5.6 11.08-3.73 2.58-9.17 3.87-16.33 3.87h-28.34v-54.81h26.78c6.68 0 11.81 1.27 15.39 3.83 3.57 2.56 5.36 6.03 5.36 10.42 0 2.66-.64 5.04-1.92 7.12-1.28 2.09-3.07 3.74-5.36 4.94z" fill="#1d3752"/><path d="M106.62 83.17l3.3 5.72a2.07 2.07 0 0 1-.77 2.83c-.32.18-.68.27-1.03.27V92H57.4c-1.15 0-2.09-.93-2.09-2.08 0-.43.14-.83.36-1.16l7.84-13.59.07-.11 17.38-30.1a2.08 2.08 0 0 1 2.83-.77c.33.19.58.46.76.76h.01l7.65 13.25h-4.79l-4.66-8.07-15.59 27-.06.12-6.12 10.59h43.54l-2.7-4.67h4.79z" fill="#a7c4d2"/></g><path d="M85.42 61.67h129.96v4.16H83.01z" fill="url(#B)"/><path d="M81.41 68.62h183.28v4.14H79.01z" fill="url(#A)"/><path d="M77.41 75.54h128.36v4.17H75z" fill="url(#C)"/><path d="M264.69 72.76c-7.28-.01-15.66-.05-22.76-1.67-6.55-1.5-12.46-4.39-19.34-10.04-1.15-.94-1.94-1.28-2.45-1.11-.62.2-1.24 1.08-1.89 2.49-4.39 9.53-9.28 15.87-15.93 19.86-6.62 3.97-14.87 5.59-25.98 5.55h-57.71l-2.7-4.67h60.4c10.55 0 17.93-.89 23.84-4.44 5.87-3.52 10.27-9.29 14.3-18.05 1.14-2.46 2.52-4.08 4.34-4.69 1.93-.64 4.02-.09 6.4 1.86 6.33 5.2 11.71 7.84 17.61 9.19 6.85 1.57 14.85 1.5 21.87 1.55v4.17z" fill="#2c7695" fill-rule="nonzero"/></svg>