<svg xmlns="http://www.w3.org/2000/svg" width="320" height="200" shape-rendering="geometricPrecision" image-rendering="optimizeQuality" fill-rule="evenodd" xmlns:v="https://vecta.io/nano"><defs><linearGradient id="A" gradientUnits="userSpaceOnUse" x1="59.96" y1="73.9" x2="213.4" y2="73.9"><stop offset="0" stop-color="#37c3f2"/><stop offset=".459" stop-color="#5885c6"/><stop offset="1" stop-color="#7a4699"/></linearGradient><linearGradient id="B" gradientUnits="userSpaceOnUse" x1="64.63" y1="65.8" x2="221.14" y2="65.8"><stop offset="0" stop-color="#faee40"/><stop offset="1" stop-color="#37c6f4"/></linearGradient><linearGradient id="C" gradientUnits="userSpaceOnUse" x1="69.3" y1="57.71" x2="221.79" y2="57.71"><stop offset="0" stop-color="#ed3237"/><stop offset="1" stop-color="#faee3e"/></linearGradient></defs><path d="M0 0h320v200H0z" fill="#fff"/><g fill-rule="nonzero"><path d="M273.32 153.19c3.9 0 6.84-.64 8.82-1.92s2.97-3.26 2.97-5.94c0-5.3-3.93-7.95-11.79-7.95h-17.26v15.81h17.26zm-17.26-41.66v15.07h14.7c3.66 0 6.43-.64 8.32-1.92s2.83-3.17 2.83-5.66c0-2.5-.94-4.37-2.83-5.62s-4.66-1.87-8.32-1.87h-14.7zm-48.55 53.9c-5.06 0-9.95-.69-14.67-2.06s-8.51-3.15-11.37-5.34l5.02-11.15c2.74 2.01 6 3.63 9.78 4.84 3.78 1.22 7.55 1.83 11.33 1.83 4.2 0 7.31-.62 9.32-1.87s3.01-2.91 3.01-4.98c0-1.52-.59-2.79-1.78-3.79-1.19-1.01-2.71-1.81-4.57-2.42s-4.37-1.28-7.53-2.01c-4.88-1.16-8.87-2.32-11.97-3.47-3.11-1.16-5.77-3.02-8-5.58-2.22-2.56-3.33-5.97-3.33-10.23 0-3.71 1-7.08 3.01-10.1 2.01-3.01 5.04-5.4 9.09-7.17 4.05-1.76 9-2.65 14.85-2.65 4.08 0 8.07.49 11.97 1.47 3.9.97 7.31 2.37 10.23 4.2l-4.57 11.24c-5.91-3.35-11.81-5.03-17.72-5.03-4.14 0-7.2.67-9.18 2.01s-2.97 3.11-2.97 5.3 1.14 3.82 3.42 4.89c2.29 1.06 5.77 2.11 10.46 3.15 4.88 1.16 8.87 2.31 11.97 3.47 3.11 1.16 5.77 2.99 8 5.48 2.22 2.5 3.33 5.88 3.33 10.14a17.48 17.48 0 0 1-3.06 10.01c-2.04 3.01-5.1 5.4-9.18 7.17s-9.05 2.65-14.89 2.65zm-32.82-12.97v11.87h-49.52v-63.95h48.33v11.88h-33.62v13.88h29.69v11.51h-29.69v14.81h34.81zm-81.07 3.01c2.44 0 4.6-.56 6.49-1.69 1.88-1.13 3.22-2.79 4.02-4.98v-5.02h-9.78c-5.85 0-8.77 1.91-8.77 5.75 0 1.83.72 3.28 2.15 4.34 1.43 1.07 3.39 1.6 5.89 1.6zm1.1-41.02c7.61 0 13.46 1.81 17.54 5.44 4.08 3.62 6.12 9.09 6.12 16.39v28.05h-13.34v-6.12c-2.68 4.57-7.68 6.85-14.98 6.85-3.78 0-7.05-.64-9.82-1.91-2.78-1.29-4.89-3.05-6.35-5.3-1.47-2.26-2.2-4.82-2.2-7.68 0-4.57 1.72-8.16 5.16-10.78 3.45-2.62 8.76-3.93 15.95-3.93h11.33c0-3.1-.95-5.49-2.84-7.17-1.88-1.67-4.72-2.51-8.49-2.51-2.62 0-5.19.41-7.72 1.23s-4.68 1.94-6.44 3.34l-5.12-9.96c2.68-1.89 5.89-3.35 9.64-4.39 3.74-1.03 7.6-1.55 11.56-1.55zM20 100.38h14.8v51.89h32.07v12.06H20v-63.95zm268.31 30.7c3.65 1.15 6.51 3.09 8.58 5.8s3.11 6.04 3.11 10c0 5.61-2.18 9.92-6.53 12.93-4.36 3.02-10.71 4.52-19.05 4.52h-33.07v-63.95h31.24c7.8 0 13.78 1.49 17.95 4.48 4.18 2.98 6.26 7.03 6.26 12.15 0 3.1-.74 5.88-2.24 8.31-1.49 2.44-3.57 4.36-6.25 5.76z" fill="#1d3752"/><path d="M97.72 80.37l3.85 6.67c.67 1.15.27 2.63-.89 3.3a2.51 2.51 0 0 1-1.2.32v.01H40.29c-1.34 0-2.42-1.09-2.42-2.43a2.45 2.45 0 0 1 .41-1.36l9.15-15.85.08-.12 20.28-35.13c.66-1.15 2.14-1.55 3.3-.89a2.45 2.45 0 0 1 .89.89v-.01l8.93 15.47h-5.59l-5.43-9.42-18.19 31.5c-.02.05-.05.1-.07.14l-7.14 12.35h50.79l-3.15-5.45 5.59.01z" fill="#a7c4d2"/></g><path d="M72.99 55.28h151.62v4.86H70.18z" fill="url(#C)"/><path d="M68.31 63.39h213.82v4.83H65.52z" fill="url(#B)"/><path d="M63.64 71.47H213.4v4.85H60.84z" fill="url(#A)"/><path d="M282.13 68.22c-8.48-.01-18.26-.05-26.55-1.95-7.64-1.75-14.53-5.12-22.56-11.71-1.34-1.1-2.26-1.5-2.85-1.3-.73.24-1.45 1.26-2.21 2.91-5.12 11.12-10.82 18.52-18.59 23.17-7.72 4.63-17.34 6.52-30.3 6.47h-67.34l-3.14-5.44h70.46c12.31 0 20.92-1.05 27.81-5.18 6.86-4.11 11.98-10.84 16.69-21.06 1.32-2.87 2.94-4.77 5.06-5.47 2.25-.75 4.69-.11 7.47 2.17 7.39 6.06 13.66 9.14 20.55 10.72 7.98 1.83 17.32 1.75 25.5 1.81v4.86z" fill="#2c7695" fill-rule="nonzero"/></svg>