<svg xmlns="http://www.w3.org/2000/svg" width="320" height="200" shape-rendering="geometricPrecision" image-rendering="optimizeQuality" fill-rule="evenodd" xmlns:v="https://vecta.io/nano"><defs><linearGradient id="A" gradientUnits="userSpaceOnUse" x1="95.22" y1="69.79" x2="204.13" y2="69.79"><stop offset="0" stop-color="#ed3237"/><stop offset="1" stop-color="#faee3e"/></linearGradient><linearGradient id="B" gradientUnits="userSpaceOnUse" x1="91.88" y1="75.57" x2="203.67" y2="75.57"><stop offset="0" stop-color="#faee40"/><stop offset="1" stop-color="#37c6f4"/></linearGradient><linearGradient id="C" gradientUnits="userSpaceOnUse" x1="88.54" y1="81.35" x2="198.14" y2="81.35"><stop offset="0" stop-color="#37c3f2"/><stop offset=".459" stop-color="#5885c6"/><stop offset="1" stop-color="#7a4699"/></linearGradient></defs><path d="M0 0h320v200H0z" fill="#fff"/><g fill-rule="nonzero"><path d="M240.94 137.99c2.79 0 4.89-.46 6.3-1.37 1.42-.91 2.12-2.33 2.12-4.24 0-3.79-2.8-5.68-8.42-5.68h-12.33v11.29h12.33zm-12.33-29.76V119h10.51c2.61 0 4.59-.46 5.94-1.37s2.02-2.26 2.02-4.05c0-1.78-.67-3.12-2.02-4.01s-3.33-1.34-5.94-1.34h-10.51zm-34.68 38.5c-3.61 0-7.1-.48-10.47-1.46s-6.08-2.26-8.12-3.82l3.58-7.96c1.96 1.43 4.29 2.59 6.99 3.46 2.69.87 5.39 1.3 8.09 1.3 3 0 5.22-.44 6.65-1.34 1.44-.89 2.16-2.07 2.16-3.55 0-1.09-.43-1.99-1.27-2.71-.85-.72-1.94-1.3-3.27-1.73-1.32-.44-3.12-.91-5.38-1.44-3.48-.82-6.33-1.65-8.55-2.48-2.22-.82-4.12-2.15-5.71-3.98-1.59-1.82-2.38-4.26-2.38-7.31 0-2.65.72-5.05 2.15-7.21 1.44-2.15 3.6-3.86 6.5-5.12 2.89-1.26 6.42-1.89 10.6-1.89 2.91 0 5.76.35 8.55 1.04 2.78.7 5.22 1.7 7.31 3l-3.27 8.03c-4.22-2.39-8.44-3.59-12.66-3.59-2.95 0-5.14.48-6.55 1.44-1.42.96-2.12 2.22-2.12 3.78 0 1.57.81 2.73 2.44 3.49s4.12 1.52 7.47 2.26c3.48.82 6.33 1.65 8.55 2.48 2.22.82 4.13 2.13 5.71 3.91 1.59 1.78 2.39 4.2 2.39 7.24 0 2.61-.73 5-2.19 7.15s-3.64 3.86-6.56 5.12c-2.91 1.26-6.46 1.89-10.64 1.89zm-23.44-9.26v8.48h-35.37v-45.68h34.52v8.49h-24.01v9.91h21.21v8.23h-21.21v10.57h24.86zm-57.9 2.15c1.74 0 3.28-.4 4.63-1.21 1.35-.8 2.3-1.99 2.87-3.55v-3.59h-6.98c-4.18 0-6.27 1.37-6.27 4.11 0 1.3.51 2.34 1.54 3.1 1.02.76 2.42 1.14 4.21 1.14zm.78-29.3c5.44 0 9.61 1.29 12.53 3.88 2.91 2.59 4.37 6.5 4.37 11.72v20.03h-9.53v-4.37c-1.91 3.26-5.48 4.89-10.7 4.89-2.7 0-5.04-.45-7.02-1.37-1.98-.91-3.49-2.17-4.53-3.78-1.05-1.61-1.57-3.44-1.57-5.48 0-3.27 1.23-5.83 3.69-7.7s6.25-2.81 11.39-2.81h8.09c0-2.22-.68-3.93-2.02-5.12-1.35-1.2-3.37-1.8-6.07-1.8-1.87 0-3.71.3-5.52.88-1.8.59-3.34 1.39-4.6 2.39l-3.65-7.12c1.91-1.35 4.21-2.39 6.88-3.13 2.68-.74 5.43-1.11 8.26-1.11zM60 100.27h10.57v37.07h22.91v8.61H60v-45.68zm191.65 21.93c2.61.82 4.65 2.21 6.13 4.14 1.48 1.94 2.22 4.32 2.22 7.15 0 4-1.55 7.08-4.67 9.23-3.11 2.15-7.64 3.23-13.6 3.23H218.1v-45.68h22.32c5.57 0 9.85 1.07 12.83 3.2s4.47 5.02 4.47 8.68c0 2.22-.54 4.2-1.6 5.94-1.07 1.74-2.56 3.11-4.47 4.11z" fill="#1d3752"/><path d="M115.51 85.98l2.76 4.76c.47.83.18 1.88-.64 2.36-.27.15-.57.23-.86.23h0H74.5c-.96 0-1.74-.77-1.74-1.73 0-.36.11-.69.3-.97l6.53-11.32.06-.09 14.49-25.09c.47-.83 1.53-1.11 2.35-.64a1.71 1.71 0 0 1 .64.64v-.01l6.38 11.05h-3.99l-3.88-6.73-13 22.51c-.02.03-.03.06-.05.09l-5.1 8.83h36.28l-2.25-3.9 3.99.01z" fill="#a7c4d2"/></g><path d="M97.85 68.06h108.3v3.47H95.84z" fill="url(#A)"/><path d="M94.51 73.85h152.73v3.45H92.51z" fill="url(#B)"/><path d="M91.17 79.62h106.97v3.47H89.17z" fill="url(#C)"/><path d="M247.24 77.3c-6.06-.01-13.05-.04-18.97-1.39-5.45-1.25-10.38-3.66-16.11-8.37-.96-.78-1.62-1.07-2.04-.93-.52.18-1.03.91-1.58 2.08-3.66 7.95-7.73 13.23-13.27 16.55-5.52 3.31-12.39 4.66-21.65 4.63h-48.1l-2.24-3.89h50.33c8.79 0 14.94-.75 19.86-3.7 4.9-2.94 8.56-7.74 11.92-15.05.95-2.05 2.1-3.4 3.62-3.9 1.61-.54 3.35-.08 5.33 1.55 5.28 4.33 9.76 6.53 14.68 7.66 5.7 1.3 12.37 1.25 18.22 1.29v3.47z" fill="#2c7695" fill-rule="nonzero"/></svg>