<?xml version="1.0" encoding="UTF-8"?>
<!DOCTYPE svg PUBLIC "-//W3C//DTD SVG 1.1//EN" "http://www.w3.org/Graphics/SVG/1.1/DTD/svg11.dtd">
<!-- Creator: CorelDRAW -->
<svg xmlns="http://www.w3.org/2000/svg" xml:space="preserve" width="320px" height="200px" version="1.1" style="shape-rendering:geometricPrecision; text-rendering:geometricPrecision; image-rendering:optimizeQuality; fill-rule:evenodd; clip-rule:evenodd"
viewBox="0 0 320 200"
 xmlns:xlink="http://www.w3.org/1999/xlink"
 xmlns:xodm="http://www.corel.com/coreldraw/odm/2003">
 <defs>
  <style type="text/css">
   <![CDATA[
    .fil1 {fill:#2668B1}
    .fil0 {fill:white}
   ]]>
  </style>
 </defs>
 <g id="Fundo">
  <metadata id="CorelCorpID_0Corel-Layer"/>
  <polygon class="fil0" points="0,0 320,0 320,200 0,200 "/>
  <path class="fil1" d="M241.95 110.96l-21.73 0.26c0.77,-15.8 -1.57,-26.9 -16.25,-28.93l-40.61 -0.15c0.07,-16.76 -0.14,-33.3 -0.14,-50.24l21.86 0 0 28.15 21.74 0c20.03,1.28 31.51,12.12 34.78,32.54l0.35 18.37zm-163.9 0l0.36 -18.36c3.27,-20.43 14.74,-31.27 34.77,-32.55l43.37 0 0.1 22.09 -40.62 0.15c-14.68,2.03 -17.02,13.13 -16.25,28.93l-21.73 -0.26zm78.59 -21.92l-21.72 -0.26c0.76,15.8 -1.58,26.9 -16.26,28.93l-40.61 0.15 0.1 22.08 43.36 0c20.03,-1.27 31.51,-12.11 34.78,-32.54l0.35 -18.36zm6.58 0l0.35 18.36c3.27,20.43 14.75,31.27 34.78,32.54l21.74 0 0 28.16 21.86 0c0,-16.94 -0.21,-33.48 -0.14,-50.24l-40.61 -0.15c-14.68,-2.04 -17.02,-13.13 -16.25,-28.93l-21.73 0.26z"/>
 </g>
</svg>
