<svg xmlns="http://www.w3.org/2000/svg" width="320" height="200" shape-rendering="geometricPrecision" image-rendering="optimizeQuality" fill-rule="evenodd" xmlns:v="https://vecta.io/nano"><path d="M0 0h320v200H0z" fill="#fff"/><path d="M241.95 110.96l-21.73.26c.77-15.8-1.57-26.9-16.25-28.93l-40.61-.15-.14-50.24h21.86v28.15h21.74c20.03 1.28 31.51 12.12 34.78 32.54l.35 18.37zm-163.9 0l.36-18.36c3.27-20.43 14.74-31.27 34.77-32.55h43.37l.1 22.09-40.62.15c-14.68 2.03-17.02 13.13-16.25 28.93l-21.73-.26zm78.59-21.92l-21.72-.26c.76 15.8-1.58 26.9-16.26 28.93l-40.61.15.1 22.08h43.36c20.03-1.27 31.51-12.11 34.78-32.54l.35-18.36zm6.58 0l.35 18.36c3.27 20.43 14.75 31.27 34.78 32.54h21.74v28.16h21.86l-.14-50.24-40.61-.15c-14.68-2.04-17.02-13.13-16.25-28.93l-21.73.26z" fill="#2668b1"/></svg>