<svg xmlns="http://www.w3.org/2000/svg" width="320" height="200" shape-rendering="geometricPrecision" image-rendering="optimizeQuality" fill-rule="evenodd" xmlns:v="https://vecta.io/nano"><path d="M0 0h320v200H0z" fill="#fff"/><path d="M235.1 132.44h2.2.55.53l.53-.01h.51l.5-.01.49-.01.47-.01.47-.02.45-.02.44-.01.43-.02.42-.03.41-.02.39-.03.38-.03.38-.03.36-.03.34-.03.34-.04.32-.04.31-.04.31-.04.29-.04.27-.05.27-.05.25-.05.24-.05.23-.05.22-.06.21-.05.19-.06.19-.06.17-.07.17-.06.16-.07.16-.07.16-.08.14-.08.14-.08.14-.08.13-.09.13-.09.12-.09.11-.1.11-.09.1-.11.1-.1.09-.11.09-.11.08-.11.07-.11.07-.12.07-.12.06-.13.05-.12.05-.13.04-.14.04-.13.03-.14.02-.14.02-.14.02-.15v-.15l.01-.15-.01-.16-.01-.16-.01-.16-.02-.15-.03-.15-.03-.14-.04-.14-.05-.15-.05-.13-.05-.14-.07-.13-.06-.13-.08-.12-.08-.12-.09-.12-.09-.12-.1-.11-.1-.11-.11-.11-.12-.11-.12-.1-.13-.1-.13-.09-.14-.1-.15-.09-.15-.08-.16-.09-.16-.08-.17-.08-.18-.07-.18-.07-.19-.07-.19-.07-.21-.07-.22-.06-.23-.06-.24-.06-.24-.06-.26-.05-.27-.05-.28-.05-.29-.05-.31-.05-.31-.04-.32-.04-.33-.04-.34-.04-.36-.03-.36-.03-.38-.03-.38-.03-.4-.03-.4-.02-.42-.03-.43-.02-.44-.01-.44-.02-.46-.01-.47-.01-.48-.01-.49-.01-.5-.01h-.51-.52-2.2v9.22zm29.53 30.84l1.18-1.34h1.39l-1.81 1.34h-.76zm3.71 7.9l-1.03-1.85h-3.59l-1.06 1.85h-1.55l4.4-7.48 4.38 7.48h-1.55zm-4.08-2.82h2.53l-.93-1.64-.17-.37c-.06-.13-.11-.28-.17-.45l-.16.44a3.34 3.34 0 0 1-.17.38l-.93 1.64zm-12.1 2.82v-7.48l5.76 4.4.48.4.5.48v-4.99h1.37v7.47l-5.88-4.47-.45-.39c-.15-.13-.29-.27-.42-.42v5h-1.36zm-2.41 0l-1.03-1.85h-3.59l-1.05 1.85h-1.55l4.39-7.48 4.38 7.48h-1.55zm-4.07-2.82h2.52l-.93-1.64-.16-.37c-.06-.13-.12-.28-.18-.45l-.16.44c-.05.14-.11.26-.16.38l-.93 1.64zm-7.64-.4v3.22h-1.38v-7.19h2.05c.61 0 1.08.03 1.41.09a2.59 2.59 0 0 1 .85.31 1.89 1.89 0 0 1 .88 1.58c0 .57-.18 1.03-.53 1.35-.35.33-.87.52-1.55.59l3.12 3.27h-1.67l-3.01-3.22h-.17zm.09-.91h.27c.78 0 1.3-.07 1.55-.21.26-.15.39-.4.39-.77 0-.39-.14-.67-.41-.84-.28-.16-.79-.24-1.53-.24h-.27v2.06zm-3.88 4.13l-1.03-1.85h-3.59l-1.05 1.85h-1.55l4.39-7.48 4.38 7.48h-1.55zm-4.07-2.82h2.52l-.93-1.64-.16-.37c-.06-.13-.12-.28-.18-.45l-.16.44c-.05.14-.11.26-.16.38l-.93 1.64zm-6.59-.41v3.23h-1.38v-7.19h2.23c.66 0 1.14.03 1.46.08a2.67 2.67 0 0 1 .81.29c.28.16.51.39.67.67s.24.6.24.94-.08.65-.24.94a1.75 1.75 0 0 1-.67.68 2.42 2.42 0 0 1-.81.28c-.32.06-.8.08-1.46.08h-.3-.55zm.09-.95h.38c.82 0 1.36-.07 1.63-.22.28-.14.41-.38.41-.74 0-.39-.14-.66-.44-.81-.29-.16-.82-.24-1.6-.24h-.38V167zm-6.99.6c0 .51-.12.99-.36 1.45-.25.46-.6.86-1.06 1.22a5.16 5.16 0 0 1-1.58.82c-.58.19-1.2.29-1.84.29a6.05 6.05 0 0 1-1.87-.29c-.59-.2-1.12-.47-1.57-.82-.46-.36-.81-.76-1.05-1.22-.24-.45-.36-.93-.36-1.45s.12-1 .36-1.45c.24-.46.59-.87 1.05-1.23a4.88 4.88 0 0 1 1.57-.81c.59-.19 1.21-.28 1.87-.28a5.92 5.92 0 0 1 1.85.28 4.88 4.88 0 0 1 1.57.81c.46.37.81.78 1.06 1.23.24.46.36.94.36 1.45zm-1.54 0c0-.36-.08-.71-.25-1.04a2.68 2.68 0 0 0-.72-.87c-.3-.25-.66-.45-1.06-.58-.4-.14-.83-.21-1.27-.21a4.18 4.18 0 0 0-1.28.2c-.4.14-.76.33-1.07.59-.31.25-.55.54-.72.87-.16.33-.25.67-.25 1.04a2.3 2.3 0 0 0 .25 1.03c.17.33.41.62.72.87.31.26.67.45 1.07.59.4.13.83.2 1.28.2.44 0 .86-.07 1.26-.2a3.61 3.61 0 0 0 1.07-.59 2.58 2.58 0 0 0 .72-.87c.17-.33.25-.67.25-1.03zM198 171.18v-7.19h1.99c1.3 0 2.21.05 2.73.15.53.11.99.28 1.38.52.53.32.93.73 1.2 1.23.27.49.4 1.06.4 1.7s-.13 1.21-.4 1.7a3.26 3.26 0 0 1-1.2 1.22c-.39.24-.84.42-1.35.52s-1.29.15-2.36.15h-.4H198zm1.48-1.05h1.24c.68 0 1.19-.04 1.53-.11a2.46 2.46 0 0 0 .89-.37c.34-.23.6-.52.77-.86.17-.35.26-.75.26-1.21s-.09-.86-.26-1.21c-.17-.34-.43-.63-.77-.86a2.54 2.54 0 0 0-.92-.37c-.36-.07-.92-.1-1.68-.1h-.53-.53v5.09zm-11.27 1.05v-7.19h1.48v6.15h3.29v1.04h-4.77zm-2.41 0l-1.03-1.85h-3.58l-1.06 1.85h-1.55l4.39-7.48 4.39 7.48h-1.56zm-4.07-2.82h2.52l-.92-1.64c-.06-.11-.11-.23-.17-.37a3.28 3.28 0 0 1-.17-.45l-.16.44-.17.38-.93 1.64zm-7.64-.4v3.22h-1.38v-7.19h2.06c.6 0 1.07.03 1.4.09s.62.17.85.31a1.89 1.89 0 0 1 .65.67c.16.28.23.58.23.91 0 .57-.17 1.03-.52 1.35-.35.33-.88.52-1.56.59l3.12 3.27h-1.66l-3.02-3.22h-.17zm.1-.91h.26c.78 0 1.3-.07 1.56-.21.25-.15.38-.4.38-.77 0-.39-.14-.67-.41-.84-.28-.16-.79-.24-1.53-.24h-.26v2.06zm-8.23 4.13v-7.19h5.06v.99h-3.58v1.8h3.58v1.03h-3.58v2.33h3.58v1.04h-5.06zm-9.38 0v-7.19h1.98c1.3 0 2.21.05 2.73.15.53.11.99.28 1.39.52.52.32.92.73 1.19 1.23.27.49.4 1.06.4 1.7s-.13 1.21-.4 1.7-.67.9-1.19 1.22c-.4.24-.85.42-1.36.52-.5.1-1.29.15-2.36.15h-.4-1.98zm1.47-1.05h1.24c.68 0 1.19-.04 1.53-.11a2.46 2.46 0 0 0 .89-.37c.34-.23.6-.52.77-.86.17-.35.26-.75.26-1.21s-.09-.86-.26-1.21c-.17-.34-.43-.63-.77-.86-.25-.17-.56-.3-.92-.37s-.92-.1-1.68-.1h-.53-.53v5.09zm-8.22 1.05v-7.19h5.06v.99h-3.59v1.8h3.59v1.03h-3.59v2.33h3.59v1.04h-5.06zm-6.66 0v-7.19h5.06v.99h-3.59v1.79h3.59v1.03h-3.59v3.38h-1.47zm-10.58 0v-7.19h5.06v.99h-3.58v1.8h3.58v1.03h-3.58v2.33h3.58v1.04h-5.06zm-9.39 0v-7.19h1.99c1.3 0 2.2.05 2.73.15.53.11.99.28 1.39.52.52.32.92.73 1.19 1.23.27.49.4 1.06.4 1.7s-.13 1.21-.4 1.7-.67.9-1.19 1.22c-.4.24-.85.42-1.36.52-.5.1-1.29.15-2.36.15h-.4-1.99zm1.48-1.05h1.24c.68 0 1.19-.04 1.53-.11a2.46 2.46 0 0 0 .89-.37c.34-.23.6-.52.77-.86.17-.35.26-.75.26-1.21s-.09-.86-.26-1.21c-.17-.34-.43-.63-.77-.86-.26-.17-.57-.3-.92-.37-.36-.07-.92-.1-1.68-.1h-.53-.53v5.09zm-3.88 1.05l-1.03-1.85h-3.59l-1.06 1.85h-1.55l4.39-7.48 4.39 7.48h-1.55zm-4.08-2.82h2.53l-.93-1.64-.17-.37a3.28 3.28 0 0 1-.17-.45l-.16.44-.17.38-.93 1.64zm-11.08 2.82v-7.19h1.99c1.29 0 2.2.05 2.73.15.52.11.98.28 1.38.52.53.32.92.73 1.19 1.23.27.49.41 1.06.41 1.7s-.14 1.21-.41 1.7a3.23 3.23 0 0 1-1.19 1.22c-.4.24-.85.42-1.35.52-.51.1-1.29.15-2.36.15h-.4-1.99zm1.47-1.05h1.24c.68 0 1.2-.04 1.54-.11s.63-.2.89-.37a2.34 2.34 0 0 0 .77-.86c.17-.35.25-.75.25-1.21s-.08-.86-.25-1.21a2.34 2.34 0 0 0-.77-.86c-.26-.17-.57-.3-.92-.37-.36-.07-.92-.1-1.68-.1h-.53-.54v5.09zm-5.06-6.14h1.47v7.19h-1.47v-7.19zm-7.51 5.75l1.18-.43a1.3 1.3 0 0 0 .61.73c.3.17.68.26 1.14.26.44 0 .79-.1 1.05-.29.25-.2.38-.45.38-.78 0-.42-.44-.8-1.32-1.13l-.29-.11c-1-.38-1.66-.73-1.99-1.05-.34-.31-.5-.69-.5-1.14 0-.59.25-1.06.75-1.43.5-.36 1.16-.54 1.97-.54.67 0 1.23.1 1.68.3.45.21.76.5.93.88l-1.15.48c-.18-.23-.38-.39-.6-.5-.21-.1-.46-.16-.74-.16-.4 0-.71.09-.94.25a.75.75 0 0 0-.36.66c0 .43.52.83 1.54 1.21.08.03.14.05.19.06.89.33 1.51.65 1.84.97.34.31.5.7.5 1.17a1.91 1.91 0 0 1-.81 1.62c-.54.4-1.27.61-2.19.61-.77 0-1.4-.15-1.9-.43-.49-.28-.81-.68-.97-1.21zm-5.2-1.78v3.22h-1.38v-7.19h2.06c.6 0 1.07.03 1.4.09a2.59 2.59 0 0 1 .85.31 1.89 1.89 0 0 1 .88 1.58c0 .57-.17 1.03-.53 1.35-.35.33-.87.52-1.55.59l3.12 3.27h-1.66l-3.02-3.22h-.17zm.09-.91h.27c.78 0 1.3-.07 1.55-.21.26-.15.39-.4.39-.77 0-.39-.14-.67-.41-.84-.28-.16-.79-.24-1.53-.24h-.27v2.06zm-8.22 4.13v-7.19h5.06v.99h-3.59v1.8h3.59v1.03h-3.59v2.33h3.59v1.04h-5.06zm-4.96.28l-4.04-7.47h1.53l2.03 3.83.29.62c.08.19.15.37.19.54l.21-.56c.08-.2.18-.4.29-.6l2.02-3.83h1.52l-4.04 7.47zm-6.47-7.47h1.47v7.19h-1.47v-7.19zm-10.21 7.19v-7.48l5.76 4.4.47.4.51.48v-4.99h1.37v7.47l-5.88-4.47-.46-.39-.41-.42v5h-1.36zm-9.48-7.19h1.46v4.37c0 .65.19 1.13.57 1.46.37.32.94.49 1.69.49s1.31-.17 1.69-.49c.38-.33.56-.81.56-1.46v-4.37h1.48v4.48c0 .97-.31 1.7-.93 2.18s-1.56.73-2.8.73c-1.25 0-2.18-.25-2.79-.73-.62-.48-.93-1.21-.93-2.18v-4.48zm.02-46.49h10.94v21.29.29l.02.29.02.29.03.28.03.27.05.27.05.27.06.26.08.26.07.25.09.25.1.24.1.24.11.24.12.23.13.22.14.22.15.22.15.21.16.21.17.2.18.19.19.2.2.19.2.18.21.18.22.17.23.17.24.17.25.16.25.16.26.15.27.14.28.15.29.13.3.14.3.12.31.13.32.11.33.12.34.11.34.1.35.1.37.1.37.09.37.08.39.09.39.07.41.07.41.07.41.06.43.06.44.06.44.04.45.05.46.04.47.03.47.03.49.03.49.02.5.02.51.01.52.01h.52.53l.51-.01.51-.01.5-.02.49-.02.48-.03.48-.03.46-.03.46-.04.45-.05.44-.04.44-.06.42-.06.42-.06.41-.07.4-.07.39-.07.39-.09.37-.08.37-.09.36-.1.35-.1.35-.1.33-.11.33-.12.32-.11.31-.13.31-.12.29-.14.29-.13.28-.15.27-.14.26-.15.26-.16.24-.16.24-.17.23-.17.22-.17.21-.18.21-.18.19-.19.19-.2.18-.19.17-.2.16-.21.16-.21.14-.22.14-.22.13-.22.12-.23.11-.24.1-.24.1-.24.09-.25.08-.25.07-.26.06-.26.05-.27.05-.27.04-.27.03-.28.02-.29.01-.29v-.29-21.29h11.08v21.82.44l-.02.43-.04.43-.04.42-.07.41-.07.41-.09.4-.1.39-.12.39-.13.37-.14.37-.16.37-.17.36-.18.35-.2.34-.21.34-.22.33-.24.32-.25.31-.27.31-.28.3-.29.3-.31.28-.32.28-.33.28-.35.26-.36.26-.38.25-.39.25-.4.24-.42.23-.43.22-.44.22-.46.21-.47.2-.48.2-.5.19-.52.18-.52.18-.54.17-.56.16-.57.16-.58.14-.6.14-.61.14-.62.13-.64.12-.65.11-.66.11-.68.1-.7.09-.7.09-.72.08-.74.07-.74.07-.77.05-.77.06-.79.04-.8.04-.82.03-.83.02-.84.02-.86.01-.87.01-.88-.01-.85-.01-.85-.02-.83-.02-.82-.03-.8-.04-.79-.04-.78-.06-.76-.05-.74-.07-.74-.07-.72-.08-.7-.09-.7-.09-.67-.1-.67-.11-.65-.11-.63-.12-.63-.13-.6-.13-.6-.14-.58-.15-.57-.16-.55-.16-.54-.17-.52-.17-.51-.18-.5-.19-.48-.2-.47-.2-.46-.21-.44-.22-.42-.22-.42-.23-.4-.24-.38-.25-.38-.25-.35-.26-.35-.26-.33-.27-.32-.29-.31-.28-.29-.3-.27-.3-.27-.3-.25-.32-.24-.32-.22-.33-.21-.34-.2-.34-.18-.35-.17-.36-.15-.36-.14-.38-.13-.37-.12-.39-.1-.39-.09-.4-.07-.41-.06-.41-.05-.43-.03-.42-.02-.44-.01-.44V117.5zm67.45 35.06V117.5h38.07v4.84h-26.99v8.74h26.99v5h-26.99v16.48h-11.08zm49.91 0V117.5h16.77.83l.82.01.81.01.79.02.77.02.76.03.75.03.74.04.72.04.71.05.7.06.68.06.66.06.66.07.64.08.62.07.62.09.6.09.58.09.57.1.56.11.54.11.53.12.52.12.5.12.49.14.48.13.46.14.45.15.43.15.42.16.41.16.39.17.38.17.37.18.36.18.35.19.33.2.32.2.3.21.3.21.28.22.27.22.26.23.24.24.23.24.22.24.21.25.19.26.18.26.17.27.16.28.14.28.13.28.12.29.11.3.09.3.08.31.07.31.06.32.04.33.03.33.02.33.01.34-.01.32-.02.31-.03.31-.04.3-.06.3-.07.3-.08.29-.1.28-.1.29-.12.27-.14.28-.14.27-.16.26-.17.26-.18.26-.2.25-.2.25-.22.24-.24.24-.24.24-.26.23-.27.23-.29.22-.29.22-.31.21-.32.21-.34.2-.34.21-.37.19-.37.19-.38.19-.4.19-.41.17-.41.18-.43.16-.44.16-.44.16-.46.15-.47.14-.47.14-.49.13-.49.13-.51.12-.51.12-.53.11-.53.1-.55.1-.55.1-.56.08-.57.09-.59.07-.59.07-.6.07-.61.06-.62.05-.63.05-.65.04-.65.04-.66.03-.66.03-.68.01-.69.02-.7.01h-.71-4.01v13.39h-14.67zm14.67-19.23h2.1l.37-.01h.37.35l.35-.01.35-.01.33-.02.33-.01.33-.02.32-.02.31-.03.3-.02.3-.03.3-.03.28-.04.28-.03.28-.04.26-.04.26-.05.26-.04.25-.05.24-.05.23-.05.23-.06.22-.06.22-.06.21-.06.2-.07.2-.07.19-.06.19-.08.17-.07.17-.08.17-.08.16-.09.16-.08.15-.09.14-.1.14-.09.14-.1.12-.1.13-.11.12-.11.11-.11.11-.11.1-.12.1-.12.09-.12.09-.13.08-.12.08-.14.07-.13.07-.14.06-.14.05-.14.05-.15.05-.15.04-.15.03-.16.03-.16.03-.16.01-.16.02-.17.01-.17v-.17-.16l-.01-.16-.02-.16-.01-.15-.03-.15-.03-.14-.03-.15-.04-.14-.05-.14-.05-.13-.05-.14-.06-.13-.07-.12-.07-.13-.08-.12-.08-.12-.09-.12-.09-.11-.1-.11-.1-.11-.11-.1-.11-.11-.12-.1-.13-.09-.12-.1-.14-.09-.14-.09-.14-.09-.15-.08-.16-.08-.16-.08-.17-.07-.17-.08-.17-.07-.19-.07-.19-.06-.2-.07-.2-.06-.21-.06-.22-.05-.22-.06-.23-.05-.23-.05-.24-.05-.25-.04-.26-.05-.26-.04-.26-.03-.28-.04-.28-.03-.28-.03-.3-.03-.3-.03-.3-.03-.31-.02-.32-.02-.33-.01-.33-.02-.33-.01-.35-.01-.35-.01-.35-.01h-.37-.37-2.1v10.3zm87.73 19.23h-16.83l-17.94-16.38v16.38h-14.58V117.5h20.88.77l.76.01.75.01.73.02.72.02.71.02.7.04.69.03.67.04.66.05.65.05.64.06.62.06.62.06.6.07.59.08.57.08.57.08.55.09.54.1.52.09.52.11.5.11.49.11.48.12.47.12.45.13.44.13.43.14.42.14.4.15.39.15.39.16.37.16.35.17.35.17.33.18.32.18.31.19.3.19.28.2.27.2.26.21.25.21.24.21.22.22.22.23.2.23.18.24.18.24.16.24.15.25.14.26.13.26.12.26.1.27.09.28.08.28.06.28.06.29.04.3.03.3.02.3.01.31-.01.22-.01.23-.02.22-.03.22-.04.21-.04.22-.06.21-.06.21-.07.21-.08.21-.09.2-.09.2-.11.2-.11.2-.12.2-.13.19-.13.19-.15.19-.15.19-.16.19-.17.18-.18.18-.19.18-.19.18-.2.18-.22.17-.22.17-.23.17-.23.17-.25.16-.25.17-.26.16-.27.16-.27.15-.27.15-.28.15-.29.14-.29.13-.3.14-.3.13-.3.12-.31.12-.32.12-.32.11-.33.11-.33.1-.33.1-.34.1-.35.09-.34.09-.36.08-.36.08-.36.07-.37.07-.37.07-.38.06-.39.06-.38.05-.4.06-.39.04-.41.04-.4.04-.41.03-.42.03 18.83 15.95z"/><path d="M179.57 69.8h7.95v15.35h-7.95V69.8zM50 158.54h220v1.89H50v-1.89zm5.76-104.92h5.65v1.02h-5.65v-1.02zm208.37 0h-5.65v1.02h5.65v-1.02zm-198.65 0h5.65v1.02h-5.65v-1.02zm188.93 0h-5.65v1.02h5.65v-1.02zm-179.21 0h5.65v1.02H75.2v-1.02zm169.49 0h-5.65v1.02h5.65v-1.02zm-159.77 0h5.65v1.02h-5.65v-1.02zm150.05 0h-5.65v1.02h5.65v-1.02zm-140.34 0h5.77v1.02h-5.77v-1.02zm130.63 0h-5.77v1.02h5.77v-1.02zm-120.91 0H110v1.02h-5.65v-1.02zm111.19 0h-5.65v1.02h5.65v-1.02zm-92.66-8.93h74.24v1.13h-74.24v-1.13zm-10.17 2.49l-29.72-10.4h-.11l-29.83 10.4h59.66zm-1.35 5.08v-3.95H54.41v3.95h56.95zm13.22-3.95h-12.09v3.95h12.09v-3.95zm71.52-5.99l-35.93-12.66-36.27 12.66h72.2zm-1.67 9.94v-3.95h-68.84v3.95h68.84zM50 53.4v-1.14h3.39v-3.95H50v-1.13l20.68-7.23H50v-1.02h23.62l9.26-3.28h.11l9.27 3.28h38.42l29.38-10.39h.11l29.27 10.39h38.19l9.38-3.39 9.26 3.39h23.62v1.02h-20.57l20.57 7.23v1.13h-3.27v3.95H270v1.14H50zm158.64-5.1v3.95l56.84.01v-3.95l-56.84-.01zm-1.36-1.13l59.44.01-29.71-10.4-29.73 10.39zm-3.16 0l20.46-7.22h-32.21l6.89 2.37v1.13h-78.52v-1.13l6.89-2.37H95.31l20.56 7.23 88.25-.01zm3.39 5.08V48.3l-12.06.01v3.95l12.06-.01zm-79.94 1.48h6.21v1.02h-6.21v-1.02zm1.01 1.47h4.19v.79h-4.19v-.79zm34.17-1.47h6.22v1.02h-6.22v-1.02zm1.02 1.47h4.18v.79h-4.18v-.79zm10.82-1.47h6.22v1.02h-6.22v-1.02zm1.02 1.47h4.18v.79h-4.18v-.79zm-24.53-1.38h6.1v1.01h-6.1v-1.01zm1.02 1.47h4.06v.79h-4.06v-.79zm-12.78-1.52h6.1v1.01h-6.1v-1.01zm1.01 1.47h4.07v.79h-4.07v-.79zm46-1.51h6.1v1.02h-6.1v-1.02zm1.02 1.47h4.06v.79h-4.06v-.79zM55.76 83.9h5.65v1.02h-5.65V83.9zm159.78 0h-5.65v1.02h5.65V83.9zm-111.19 0H110v1.02h-5.65V83.9zm120.91 0h-5.77v1.02h5.77V83.9zm-130.63 0h5.77v1.02h-5.77V83.9zm140.34 0h-5.65v1.02h5.65V83.9zm-150.05 0h5.65v1.02h-5.65V83.9zm159.77 0h-5.65v1.02h5.65V83.9zm-169.49 0h5.65v1.02H75.2V83.9zm179.21 0h-5.65v1.02h5.65V83.9zm-188.93 0h5.65v1.02h-5.65V83.9zm198.65 0h-5.65v1.02h5.65V83.9zM149.22 99.61v-3.08h9.82v3.08h1.92v-3.1h9.82v3.1h2.02v-3.1h9.82v3.1h1.85v-3.1h9.82v3.1h7.35V103h3.61v3.5h2.27V86.28h-16.37v7.22h-3.63v-7.22h-7.95v7.22h-3.89v-7.22h-7.95v7.22h-3.78v-7.22H156v7.22h-3.81v-7.22h-7.92v7.22h-3.75v-7.22h-7.97v7.22h-3.75v-7.22h-16.31v20.22h2.37V103h3.5v-3.39h7.42v-3.1h9.82v3.1h1.86v-3.1h9.82v3.1h1.94zm-22.49-5.09h7.91v1.02h-7.91v-1.02zm35.19 0h7.9v1.02h-7.9v-1.02zm11.84 0h7.91v1.02h-7.91v-1.02zm-23.58.09h7.91v1.02h-7.91v-1.02zm-11.77-.05h7.91v1.02h-7.91v-1.02zm47.01-.04h7.91v1.02h-7.91v-1.02zm-58.62 4.07h7.78v-1.07h-7.78v1.07zm11.68 0h7.78v-1.07h-7.78v1.07zm11.76.03h7.78v-1.07h-7.78v1.07zm11.74-.03h7.78v-1.07h-7.78v1.07zm11.84 0h7.78v-1.07h-7.78v1.07zm11.66 0h7.79v-1.07h-7.79v1.07zM167.73 69.8h7.95v15.35h-7.95V69.8zm-11.73 0h7.95v15.35H156V69.8zm-11.73 0h7.92v15.35h-7.92V69.8zm-11.72 0h7.97v15.35h-7.97V69.8zm56.1-11.4h1.37v34.09h-1.37V58.4zm-11.84 0h1.63v34.09h-1.63V58.4zm-11.73 0h1.52v34.09h-1.52V58.4zm-11.76 0h1.55v34.09h-1.55V58.4zm-11.71 0h1.5v34.09h-1.5V58.4zm-11.68 0h1.49v34.09h-1.49V58.4zm-72.47-2.29h2.26v26.44h-2.26V56.11zm11.97 26.44h-2.26V56.11h2.26v26.44zm9.72 0h-2.26V56.11h2.26v26.44zm7.46-26.44h2.26v26.44h-2.26V56.11zm11.98 26.44h-2.26V56.11h2.26v26.44zm9.71 0h-2.25V56.11h2.25v26.44zm103.28 0h2.26V56.11h-2.26v26.44zm9.72-26.44v26.44h2.26V56.11h-2.26zm9.72 26.44h2.26V56.11h-2.26v26.44zm9.72-26.44v26.44H243V56.11h-2.26zm19.43 26.44V56.11h2.26v26.44h-2.26zm-9.72-26.44v26.44h2.26V56.11h-2.26zm-42.93 54.01h-95.03v-2.49h95.03v2.49zm-3.39-3.62h-88.26v-2.37h88.26v2.37zM128.8 57.2h3.75v11.58h7.97V57.2h3.75v11.58h7.92V57.2H156v11.58h7.95V57.2h3.78v11.58h7.95V57.2h3.89v11.58h7.95V57.2h3.63v11.56.01h19.3V54.98h4.41v13.78h5.31V54.98h4.41v13.78h5.31V54.98h4.52v13.78h5.31V54.98h4.29v13.78h5.31V54.98h4.52v13.78h5.31V54.98h4.41v13.78h6.33v1.02h-6.33v13.78h-4.41V69.78h-5.31v13.78h-4.52V69.78h-5.31v13.78h-4.29V69.78h-5.31v13.78h-4.52V69.78h-5.31v13.78h-4.41V69.78h-5.31v13.78h-4.41V69.78h-19.3v.02 15.35h78.74v1.13h-61.36v5.87h61.36v1.02h-61.36v6.44h61.36v1.02h-61.36v5.87h61.36v1.13h-61.36v2.49h61.36v1.81H50v-1.81h61.36v-2.49H50v-1.13h61.36v-5.87H50v-1.02h61.36v-6.44H50v-1.02h61.36v-5.87H50v-1.13h78.8V69.78h-19.36v13.78h-4.41V69.78h-5.31v13.78h-4.41V69.78H90v13.78h-4.41V69.78h-5.42v13.78h-4.3V69.78h-5.31v13.78h-4.52V69.78h-5.31v13.78h-4.4V69.78H50v-1.02h6.33V54.98h4.4v13.78h5.31V54.98h4.52v13.78h5.31V54.98h4.3v13.78h5.42V54.98H90v13.78h5.31V54.98h4.41v13.78h5.31V54.98h4.41v13.78h19.36V57.2zm71.82 45.8h-81.24v-2.37h81.24V103z" fill="#005c92"/></svg>