<svg xmlns="http://www.w3.org/2000/svg" width="320" height="200" shape-rendering="geometricPrecision" image-rendering="optimizeQuality" fill-rule="evenodd" xmlns:v="https://vecta.io/nano"><path d="M0 0h320v200H0z" fill="#fff"/><path d="M241.93 135.39h2.4.59.59l.57-.01h.56l.54-.01.53-.02.53-.01.5-.02.5-.01.48-.02.47-.03.45-.02.45-.03.43-.03.42-.03.4-.03.39-.04.38-.03.37-.04.35-.04.34-.05.33-.04.32-.05.3-.05.29-.05.28-.06.26-.05.25-.06.24-.06.22-.06.22-.07.2-.07.19-.06.18-.08.18-.07.17-.08.17-.08.16-.09.16-.09.14-.09.15-.09.13-.1.13-.1.13-.1.12-.11.11-.11.11-.11.1-.12.09-.12.09-.12.08-.13.07-.13.08-.13.06-.14.06-.13.05-.14.04-.15.04-.15.04-.15.03-.15.02-.16.01-.16.01-.16v-.17-.17l-.01-.18-.01-.17-.03-.16-.03-.16-.03-.16-.05-.16-.05-.15-.05-.15-.06-.14-.07-.15-.07-.14-.09-.14-.08-.13-.1-.13-.1-.13-.11-.12-.11-.12-.12-.12-.13-.11-.13-.11-.14-.11-.15-.11-.15-.1-.16-.1-.17-.09-.17-.09-.18-.09-.18-.09-.2-.08-.19-.08-.21-.08-.21-.07-.23-.07-.23-.07-.25-.06-.26-.07-.27-.06-.29-.06-.29-.06-.31-.05-.31-.05-.33-.05-.34-.05-.35-.04-.37-.05-.37-.04-.39-.03-.39-.04-.41-.03-.42-.04-.44-.02-.44-.03-.45-.03-.47-.02-.48-.02-.49-.01-.5-.02-.51-.01-.52-.01-.53-.01-.55-.01h-.56-.56-2.4v10.06zm32.21 33.64l1.29-1.46h1.52l-1.98 1.46h-.83zm4.04 8.62l-1.12-2.02h-3.91l-1.15 2.02h-1.69l4.79-8.16 4.78 8.16h-1.7zm-4.44-3.08h2.75l-1.01-1.79c-.06-.11-.12-.25-.18-.39l-.19-.5c-.05.17-.11.33-.17.48s-.12.28-.19.41l-1.01 1.79zm-13.2 3.08v-8.16l6.28 4.8.52.44c.18.15.36.32.56.52v-5.44h1.48v8.15l-6.41-4.89-.49-.41a4.99 4.99 0 0 1-.46-.46v5.45h-1.48zm-2.63 0l-1.12-2.02h-3.92l-1.15 2.02h-1.69l4.79-8.16 4.79 8.16h-1.7zm-4.45-3.08h2.76l-1.01-1.79c-.06-.11-.12-.25-.18-.39-.07-.15-.13-.32-.19-.5l-.18.48-.18.41-1.02 1.79zm-8.32-.43v3.51h-1.51v-7.84h2.24c.66 0 1.17.03 1.53.1s.67.18.93.33a2.09 2.09 0 0 1 .71.74 1.97 1.97 0 0 1 .25.99c0 .62-.19 1.12-.57 1.47-.39.36-.95.57-1.7.64l3.41 3.57h-1.82l-3.29-3.51h-.18zm.1-.99h.29c.85 0 1.41-.08 1.69-.24.28-.15.42-.43.42-.83 0-.43-.15-.74-.45-.91-.3-.18-.85-.27-1.66-.27h-.29v2.25zm-4.24 4.5l-1.12-2.02h-3.92l-1.15 2.02h-1.69l4.79-8.16 4.79 8.16H241zm-4.45-3.08h2.76l-1.01-1.79c-.06-.11-.12-.25-.18-.39-.07-.15-.13-.32-.19-.5l-.18.48-.18.41-1.02 1.79zm-7.18-.44v3.52h-1.51v-7.84h2.43c.72 0 1.25.03 1.59.09a2.6 2.6 0 0 1 .89.31c.31.18.56.43.73.73.18.31.27.65.27 1.03 0 .37-.09.71-.27 1.02-.17.32-.42.57-.73.74a2.6 2.6 0 0 1-.89.31c-.34.06-.87.09-1.59.09h-.31-.61zm.1-1.04h.41c.89 0 1.49-.08 1.79-.23.29-.16.44-.43.44-.82 0-.42-.16-.71-.48-.88-.31-.18-.9-.26-1.75-.26h-.41v2.19zm-7.63.65a3.4 3.4 0 0 1-.39 1.59c-.27.49-.65.94-1.15 1.33-.51.39-1.09.68-1.73.89s-1.31.31-2.01.31a6.59 6.59 0 0 1-2.04-.31 5.79 5.79 0 0 1-1.71-.89c-.51-.39-.89-.83-1.15-1.33a3.34 3.34 0 0 1-.39-1.59 3.33 3.33 0 0 1 .39-1.58c.26-.5.64-.95 1.15-1.34s1.08-.68 1.72-.89c.63-.2 1.31-.3 2.03-.3a6.67 6.67 0 0 1 2.02.3c.64.21 1.21.5 1.72.89a4.41 4.41 0 0 1 1.15 1.35 3.35 3.35 0 0 1 .39 1.57zm-1.67 0c0-.39-.1-.77-.28-1.13-.18-.35-.44-.67-.78-.95s-.72-.49-1.16-.63c-.44-.15-.9-.23-1.39-.23s-.95.08-1.39.22c-.44.15-.83.36-1.17.64s-.6.59-.79.95a2.63 2.63 0 0 0-.26 1.13c0 .4.09.78.26 1.13.19.36.45.67.79.95s.73.49 1.17.64c.43.15.9.22 1.39.22.48 0 .94-.07 1.37-.22a3.85 3.85 0 0 0 1.18-.64c.34-.28.6-.59.78-.95s.28-.73.28-1.13zm-18.71 3.91v-7.84h2.17c1.41 0 2.4.05 2.97.16.58.12 1.08.3 1.51.57a3.55 3.55 0 0 1 1.31 1.33c.29.55.44 1.17.44 1.86 0 .7-.15 1.32-.44 1.86a3.55 3.55 0 0 1-1.31 1.33c-.43.26-.92.45-1.47.57-.55.11-1.41.16-2.58.16h-.43-2.17zm1.61-1.15h1.35c.74 0 1.3-.04 1.67-.12a2.71 2.71 0 0 0 .97-.39 2.54 2.54 0 0 0 .84-.95c.19-.38.28-.82.28-1.32s-.09-.94-.28-1.31a2.54 2.54 0 0 0-.84-.95c-.28-.18-.62-.32-1-.4-.39-.08-1-.11-1.83-.11h-.58-.58v5.55zm-12.29 1.15v-7.84h1.61v6.7h3.59v1.14h-5.2zm-2.63 0l-1.12-2.02h-3.92l-1.15 2.02h-1.69l4.79-8.16 4.78 8.16h-1.69zm-4.45-3.08h2.76l-1.01-1.79c-.06-.11-.12-.25-.18-.39-.07-.15-.13-.32-.2-.5a3.39 3.39 0 0 1-.17.48l-.18.41-1.02 1.79zm-8.33-.43v3.51h-1.5v-7.84h2.24c.66 0 1.17.03 1.53.1s.67.18.93.33a2.09 2.09 0 0 1 .71.74 1.97 1.97 0 0 1 .25.99c0 .62-.19 1.12-.57 1.47-.39.36-.95.57-1.7.64l3.4 3.57h-1.81l-3.29-3.51h-.19zm.11-.99h.29c.85 0 1.41-.08 1.69-.24.28-.15.42-.43.42-.83 0-.43-.15-.74-.45-.91-.3-.18-.85-.27-1.66-.27h-.29v2.25zm-8.97 4.5v-7.84h5.52v1.08h-3.92v1.97h3.92v1.11h-3.92v2.54h3.92v1.14h-5.52zm-10.25 0v-7.84h2.17c1.41 0 2.41.05 2.98.16.57.12 1.08.3 1.51.57.57.35 1 .79 1.3 1.33.3.55.44 1.17.44 1.86 0 .7-.14 1.32-.44 1.86s-.73.98-1.3 1.33c-.43.26-.93.45-1.48.57-.55.11-1.41.16-2.57.16h-.44-2.17zm1.61-1.15h1.35c.75 0 1.3-.04 1.68-.12a2.71 2.71 0 0 0 .97-.39 2.54 2.54 0 0 0 .84-.95c.18-.38.28-.82.28-1.32s-.1-.94-.28-1.31a2.54 2.54 0 0 0-.84-.95c-.28-.18-.62-.32-1.01-.4s-1-.11-1.83-.11h-.58-.58v5.55zm-8.97 1.15v-7.84h5.52v1.08h-3.91v1.97h3.91v1.11h-3.91v2.54h3.91v1.14h-5.52zm-7.26 0v-7.84h5.52v1.08h-3.91v1.95h3.91v1.12h-3.91v3.69h-1.61zm-11.54 0v-7.84h5.52v1.08h-3.91v1.97h3.91v1.11h-3.91v2.54h3.91v1.14h-5.52zm-10.24 0v-7.84h2.17c1.41 0 2.4.05 2.97.16.58.12 1.08.3 1.51.57a3.55 3.55 0 0 1 1.31 1.33c.29.55.44 1.17.44 1.86 0 .7-.15 1.32-.44 1.86a3.55 3.55 0 0 1-1.31 1.33c-.43.26-.92.45-1.47.57-.55.11-1.41.16-2.58.16h-.43-2.17zm1.61-1.15h1.35c.74 0 1.3-.04 1.67-.12a2.71 2.71 0 0 0 .97-.39c.38-.26.65-.57.84-.95s.28-.82.28-1.32-.09-.94-.28-1.31c-.19-.38-.46-.69-.84-.95a2.91 2.91 0 0 0-1-.4c-.39-.08-1-.11-1.83-.11h-.58-.58v5.55zm-4.24 1.15l-1.12-2.02h-3.92l-1.15 2.02h-1.69l4.79-8.16 4.79 8.16h-1.7zm-4.44-3.08h2.75l-1.01-1.79c-.06-.11-.12-.25-.18-.39-.07-.15-.13-.32-.19-.5l-.18.48-.18.41-1.01 1.79zm-12.09 3.08v-7.84h2.17c1.41 0 2.4.05 2.97.16.58.12 1.08.3 1.51.57.58.35 1.01.79 1.3 1.33.3.55.45 1.17.45 1.86 0 .7-.15 1.32-.45 1.86-.29.54-.72.98-1.3 1.33-.43.26-.92.45-1.47.57-.55.11-1.41.16-2.58.16h-.43-2.17zm1.61-1.15h1.35c.74 0 1.3-.04 1.67-.12a2.71 2.71 0 0 0 .97-.39 2.54 2.54 0 0 0 .84-.95c.19-.38.28-.82.28-1.32s-.09-.94-.28-1.31a2.54 2.54 0 0 0-.84-.95 2.91 2.91 0 0 0-1-.4c-.39-.08-1-.11-1.83-.11h-.58-.58v5.55zm-5.53-6.69h1.61v7.84h-1.61v-7.84zm-8.19 6.27l1.29-.47c.12.35.34.62.66.8.33.19.74.28 1.25.28.47 0 .85-.11 1.14-.32a1 1 0 0 0 .42-.85c0-.46-.48-.87-1.45-1.23l-.31-.12c-1.09-.42-1.81-.8-2.18-1.14-.36-.34-.54-.76-.54-1.25 0-.64.27-1.16.82-1.56s1.26-.59 2.15-.59c.73 0 1.34.11 1.83.33.5.22.83.55 1.02.97l-1.25.51c-.2-.25-.42-.43-.66-.54-.23-.12-.5-.17-.81-.17-.43 0-.78.09-1.03.26-.26.18-.38.42-.38.72 0 .48.56.91 1.68 1.32l.19.08c.98.35 1.65.7 2.02 1.04.36.35.55.77.55 1.28 0 .75-.3 1.34-.89 1.78-.59.43-1.38.65-2.39.65-.84 0-1.53-.15-2.07-.46a2.2 2.2 0 0 1-1.06-1.32zm-5.67-1.94v3.51h-1.51v-7.84h2.24c.66 0 1.17.03 1.54.1.36.07.67.18.92.33.31.2.55.44.71.74a1.97 1.97 0 0 1 .25.99c0 .62-.19 1.12-.57 1.47-.38.36-.95.57-1.7.64l3.41 3.57h-1.82l-3.29-3.51h-.18zm.1-.99h.29c.85 0 1.42-.08 1.7-.24.27-.15.41-.43.41-.83 0-.43-.15-.74-.45-.91-.29-.18-.85-.27-1.66-.27h-.29v2.25zm-8.97 4.5v-7.84h5.52v1.08h-3.91v1.97h3.91v1.11h-3.91v2.54h3.91v1.14h-5.52zm-5.41.31l-4.41-8.15h1.67l2.21 4.18a5.7 5.7 0 0 1 .32.67 3.81 3.81 0 0 1 .21.59c.06-.2.13-.4.22-.61.09-.22.2-.43.32-.65l2.21-4.18h1.66l-4.41 8.15zm-7.06-8.15h1.61v7.84h-1.61v-7.84zm-11.14 7.84v-8.16l6.28 4.8.52.44c.18.15.36.32.55.52v-5.44h1.49v8.15l-6.41-4.89-.49-.41a4.99 4.99 0 0 1-.46-.46v5.45h-1.48zm-10.34-7.84h1.59v4.76c0 .71.21 1.24.62 1.6.41.35 1.03.53 1.84.53.82 0 1.43-.18 1.85-.53.41-.36.61-.89.61-1.6v-4.76h1.61v4.88c0 1.06-.33 1.85-1.01 2.38s-1.69.79-3.05.79-2.38-.26-3.05-.79c-.67-.52-1.01-1.32-1.01-2.38v-4.88zm.02-50.72h11.93v23.22l.01.32.01.32.03.31.03.31.04.3.05.29.06.29.06.29.08.28.09.28.09.27.11.26.11.26.12.26.13.25.14.24.15.24.16.24.17.23.18.23.18.22.2.21.2.21.22.21.22.2.23.19.24.19.25.19.26.18.27.18.28.17.28.16.3.16.31.16.31.15.32.14.33.14.34.13.35.13.36.13.37.12.37.11.39.11.39.1.41.1.41.1.42.09.43.08.44.08.44.07.46.07.47.06.47.06.49.05.49.05.5.04.51.04.52.04.53.02.53.03.55.01.55.02.57.01h.57.57l.57-.01.55-.02.54-.01.54-.03.53-.02.51-.04.51-.04.5-.04.49-.05.49-.05.47-.06.46-.06.46-.07.44-.07.44-.08.43-.08.42-.09.41-.1.4-.1.4-.1.38-.11.38-.11.36-.12.36-.13.35-.13.34-.13.33-.14.32-.14.32-.15.3-.16.3-.16.28-.16.28-.17.27-.18.26-.18.25-.19.24-.19.23-.19.22-.2.22-.21.2-.21.2-.21.18-.22.18-.23.17-.23.16-.24.15-.24.14-.24.13-.25.12-.26.11-.26.11-.26.09-.27.09-.28.08-.28.06-.29.06-.29.05-.29.04-.3.04-.31.02-.31.01-.32.01-.32v-23.22h12.09v23.8l-.01.48-.02.48-.04.46-.05.46-.07.45-.08.44-.1.44-.11.43-.13.42-.14.41-.15.4-.17.4-.19.39-.2.38-.22.38-.23.36-.24.36-.26.36-.28.34-.29.33-.3.33-.32.33-.34.31-.35.3-.36.3-.38.29-.39.29-.41.27-.43.27-.44.26-.45.25-.47.24-.48.24-.5.23-.52.22-.53.22-.54.2-.56.2-.58.2-.59.18-.6.18-.62.17-.64.16-.65.15-.66.15-.68.14-.7.13-.71.12-.73.12-.74.11-.75.1-.77.09-.79.09-.8.08-.81.07-.84.07-.84.05-.86.05-.88.04-.89.04-.9.02-.92.02-.94.01-.95.01-.95-.01-.94-.01-.92-.02-.91-.02-.89-.04-.88-.04-.86-.05-.84-.05-.83-.07-.82-.07-.8-.08-.78-.09-.77-.09-.76-.1-.74-.11-.72-.11-.71-.13-.7-.13-.68-.14-.66-.15-.65-.15-.63-.16-.62-.17-.6-.18-.59-.18-.57-.19-.56-.2-.54-.21-.53-.21-.51-.22-.49-.23-.49-.24-.46-.24-.45-.25-.44-.26-.42-.27-.41-.27-.39-.29-.38-.29-.36-.29-.35-.31-.33-.31-.31-.32-.31-.33-.29-.34-.27-.34-.26-.35-.24-.36-.23-.37-.21-.37-.2-.38-.19-.39-.17-.4-.15-.41-.14-.41-.13-.42-.11-.43-.09-.44-.09-.44-.06-.45-.05-.46-.04-.47-.02-.48-.01-.48v-23.8zm73.58 38.25v-38.25h41.53v5.28h-29.44v9.53h29.44v5.46h-29.44v17.98H113.7zm54.44 0v-38.25h18.31.9l.9.01.87.01.86.02.85.03.83.03.82.03.8.05.79.04.77.06.76.06.75.06.72.07.72.08.7.08.68.08.67.1.65.09.64.11.62.11.61.11.59.12.58.13.57.13.54.14.54.14.52.15.5.16.49.16.47.16.46.17.44.18.43.18.42.19.4.2.39.2.38.2.36.22.35.22.33.22.33.24.3.23.3.25.28.25.26.25.26.27.23.26.23.28.21.28.2.29.18.29.17.3.16.3.14.31.13.32.12.32.1.33.09.34.07.34.07.35.04.35.04.36.02.37v.37.35l-.02.34-.04.33-.04.34-.07.32-.07.33-.09.31-.1.31-.12.31-.13.3-.15.3-.15.3-.18.29-.18.28-.2.28-.21.28-.23.27-.24.26-.26.26-.26.26-.29.25-.29.25-.31.24-.32.24-.34.23-.35.23-.37.22-.38.22-.39.22-.41.21-.42.2-.43.2-.44.2-.46.19-.46.18-.48.17-.49.17-.5.17-.5.15-.52.15-.53.15-.54.14-.55.13-.56.13-.58.12-.58.11-.59.11-.61.1-.61.1-.63.09-.63.08-.65.08-.65.07-.67.06-.68.06-.69.05-.7.05-.71.04-.72.03-.73.03-.74.02-.75.02-.76.01h-.77-4.38v14.61h-16.01zm16.01-20.98h2.3l.4-.01h.4l.38-.01h.39l.37-.02.37-.01.36-.02.36-.02.34-.02.34-.03.34-.03.32-.03.32-.03.31-.04.31-.04.3-.04.29-.05.28-.04.28-.05.27-.06.26-.05.26-.06.25-.06.24-.06.24-.07.23-.07.22-.07.21-.07.21-.08.2-.08.2-.08.18-.09.19-.09.17-.09.17-.09.16-.1.16-.1.15-.11.15-.11.14-.11.14-.11.13-.12.12-.12.12-.12.11-.13.11-.13.1-.14.1-.13.09-.14.08-.15.08-.14.07-.15.07-.16.06-.16.05-.15.05-.17.04-.16.04-.17.03-.18.03-.17.02-.18.01-.19.01-.18.01-.19-.01-.17-.01-.18-.01-.16-.02-.17-.03-.17-.03-.15-.04-.16-.04-.15-.05-.16-.05-.14-.06-.15-.07-.14-.07-.14-.08-.14-.08-.13-.09-.13-.1-.13-.1-.12-.11-.12-.11-.12-.12-.11-.12-.12-.13-.1-.14-.11-.14-.1-.15-.1-.15-.1-.16-.1-.16-.09-.17-.08-.17-.09-.19-.08-.18-.08-.2-.08-.2-.08-.21-.07-.21-.07-.22-.06-.23-.07-.24-.06-.24-.06-.25-.06-.26-.05-.26-.05-.27-.05-.28-.05-.28-.04-.29-.04-.3-.04-.31-.04-.31-.03-.32-.04-.32-.02-.34-.03-.34-.02-.34-.03-.36-.01-.36-.02-.37-.02-.37-.01-.39-.01h-.38-.4l-.4-.01h-2.3v11.24zm95.7 20.98H261.5l-19.57-17.87v17.87h-15.91v-38.25h22.78.84l.83.01.81.01.81.02.78.02.78.03.76.04.75.04.73.04.72.05.71.06.7.06.68.06.67.07.65.08.64.08.63.09.62.09.6.1.59.1.57.11.56.12.55.11.54.13.52.13.51.13.49.14.48.15.47.15.46.15.44.16.43.17.41.17.41.18.39.18.37.19.37.19.35.2.33.2.33.21.31.22.29.22.29.22.27.23.26.24.24.24.23.25.22.25.21.26.19.26.18.27.16.27.15.28.14.28.13.29.11.3.1.3.08.3.08.31.06.32.04.32.04.32.02.34v.33.25l-.02.24-.02.24-.03.24-.04.24-.05.23-.06.23-.07.23-.07.23-.09.23-.09.22-.11.22-.11.22-.12.22-.13.21-.15.21-.14.21-.16.21-.17.2-.18.21-.18.2-.2.2-.2.19-.21.19-.22.2-.24.19-.23.18-.25.19-.26.18-.27.18-.27.18-.29.18-.29.17-.29.16-.31.17-.3.16-.32.15-.31.15-.33.15-.32.14-.34.13-.34.13-.34.13-.35.12-.35.12-.36.12-.37.1-.37.11-.38.1-.38.09-.38.09-.4.09-.39.08-.41.08-.4.07-.42.07-.41.06-.43.06-.42.06-.44.05-.44.04-.44.04-.45.04-.46.03 20.54 17.4z"/><path d="M181.35 67.05h8.67V83.8h-8.67V67.05zM40 163.86h240v2.06H40v-2.06zM46.29 49.4h6.16v1.11h-6.16V49.4zm227.3 0h-6.16v1.11h6.16V49.4zm-216.7 0h6.16v1.11h-6.16V49.4zm206.1 0h-6.16v1.11h6.16V49.4zm-195.5 0h6.16v1.11h-6.16V49.4zm184.9 0h-6.16v1.11h6.16V49.4zm-174.3 0h6.16v1.11h-6.16V49.4zm163.7 0h-6.16v1.11h6.16V49.4zm-153.1 0h6.29v1.11h-6.29V49.4zm142.5 0h-6.29v1.11h6.29V49.4zm-131.9 0h6.17v1.11h-6.17V49.4zm121.3 0h-6.17v1.11h6.17V49.4zm-101.08-9.73h80.99v1.23h-80.99v-1.23zm-11.1 2.71L75.99 31.04h-.12L43.33 42.38h65.08zm-1.47 5.54v-4.31H44.81v4.31h62.13zm14.42-4.31h-13.19v4.31h13.19v-4.31zm78.02-6.53l-39.19-13.81-39.57 13.81h78.76zm-1.82 10.84v-4.31h-75.09v4.31h75.09zM40 49.16v-1.24h3.7v-4.31H40v-1.23l22.56-7.89H40v-1.11h25.76l10.11-3.57h.12l10.11 3.57h41.91l32.05-11.34h.13l31.92 11.34h41.67l10.23-3.7 10.1 3.7h25.77v1.11h-22.44l22.44 7.89v1.23h-3.57v4.31H280v1.24H40zm173.06-5.56v4.31l62.01.01v-4.31l-62.01-.01zm-1.48-1.23l64.85.01-32.42-11.34-32.43 11.33zm-3.45 0l22.32-7.88h-35.13l7.51 2.59v1.23h-85.66v-1.23l7.51-2.59H89.43l22.43 7.89 96.27-.01zm3.7 5.54V43.6l-13.16.01v4.31l13.16-.01zm-87.21 1.62h6.78v1.11h-6.78v-1.11zm1.11 1.6h4.56v.86h-4.56v-.86zm37.27-1.6h6.78v1.11H163v-1.11zm1.11 1.6h4.56v.86h-4.56v-.86zm11.81-1.6h6.78v1.11h-6.78v-1.11zm1.11 1.6h4.56v.86h-4.56v-.86zm-26.76-1.51h6.65v1.11h-6.65v-1.11zm1.11 1.6h4.43v.86h-4.43v-.86zm-13.94-1.65h6.65v1.1h-6.65v-1.1zm1.11 1.6h4.43v.86h-4.43v-.86zm50.17-1.64h6.66v1.11h-6.66v-1.11zm1.11 1.6h4.44v.86h-4.44v-.86zM46.29 82.44h6.16v1.11h-6.16v-1.11zm174.3 0h-6.17v1.11h6.17v-1.11zm-121.3 0h6.17v1.11h-6.17v-1.11zm131.9 0h-6.29v1.11h6.29v-1.11zm-142.5 0h6.29v1.11h-6.29v-1.11zm153.1 0h-6.16v1.11h6.16v-1.11zm-163.7 0h6.16v1.11h-6.16v-1.11zm174.3 0h-6.16v1.11h6.16v-1.11zm-184.9 0h6.16v1.11h-6.16v-1.11zm195.5 0h-6.16v1.11h6.16v-1.11zm-206.1 0h6.16v1.11h-6.16v-1.11zm216.7 0h-6.16v1.11h6.16v-1.11zM148.24 99.57v-3.35h10.71v3.35h2.1v-3.38h10.71v3.38h2.21v-3.38h10.71v3.38h2.01v-3.38h10.71v3.38h8.02v3.7h3.95v3.82h2.47V85.03h-17.86v7.88h-3.96v-7.87h-8.67v7.87h-4.25v-7.87h-8.67v7.87h-4.12v-7.87h-8.67v7.87h-4.16v-7.87h-8.64v7.87h-4.09v-7.87h-8.7v7.87h-4.09v-7.88h-17.79v22.06h2.59v-3.82h3.82v-3.7h8.09v-3.38h10.71v3.38h2.03v-3.38h10.71v3.38h2.12zm-24.53-5.55h8.63v1.11h-8.63v-1.11zm38.38 0h8.63v1.11h-8.63v-1.11zm12.92 0h8.62v1.11h-8.62v-1.11zm-25.73.1h8.63v1.11h-8.63v-1.11zm-12.83-.06h8.63v1.11h-8.63v-1.11zm51.28-.04h8.63v1.11h-8.63v-1.11zm-63.95 4.44h8.49V97.3h-8.49v1.16zm12.74 0h8.49V97.3h-8.49v1.16zm12.83.03h8.49v-1.16h-8.49v1.16zm12.81-.03h8.49V97.3h-8.49v1.16zm12.91 0h8.5V97.3h-8.5v1.16zm12.73 0h8.49V97.3h-8.49v1.16zm-19.37-31.41h8.67V83.8h-8.67V67.05zm-12.79 0h8.67V83.8h-8.67V67.05zm-12.8 0h8.64V83.8h-8.64V67.05zm-12.79 0h8.7V83.8h-8.7V67.05zm61.2-12.43h1.5V91.8h-1.5V54.62zm-12.91 0h1.78V91.8h-1.78V54.62zm-12.8 0h1.66V91.8h-1.66V54.62zm-12.83 0h1.7V91.8h-1.7V54.62zm-12.77 0h1.63V91.8h-1.63V54.62zm-12.74 0h1.62V91.8h-1.62V54.62zm-79.06-2.5h2.46v28.84h-2.46V52.12zM61.2 80.96h-2.46V52.12h2.46v28.84zm10.6 0h-2.46V52.12h2.46v28.84zm8.14-28.84h2.46v28.84h-2.46V52.12zm13.07 28.84h-2.47V52.12h2.47v28.84zm10.59 0h-2.46V52.12h2.46v28.84zm112.67 0h2.47V52.12h-2.47v28.84zm10.6-28.84v28.84h2.47V52.12h-2.47zm10.6 28.84h2.47V52.12h-2.47v28.84zm10.61-28.84v28.84h2.46V52.12h-2.46zm21.2 28.84V52.12h2.46v28.84h-2.46zm-10.6-28.84v28.84h2.46V52.12h-2.46zm-46.84 58.92H108.17v-2.71h103.67v2.71zm-3.7-3.95h-96.28v-2.58h96.28v2.58zM125.96 53.3h4.09v12.64h8.7V53.3h4.09v12.64h8.64V53.3h4.16v12.64h8.67V53.3h4.12v12.64h8.67V53.3h4.25v12.64h8.67V53.3h3.96v12.62.01h21.06V50.88h4.81v15.04h5.79V50.88h4.81v15.04h5.79V50.88h4.93v15.04h5.8V50.88h4.68v15.04h5.79V50.88h4.93v15.04h5.8V50.88h4.81v15.04h6.9v1.11h-6.9v15.04h-4.81V67.03h-5.8v15.04h-4.93V67.03h-5.79v15.04h-4.68V67.03h-5.8v15.04h-4.93V67.03h-5.79v15.04h-4.81V67.03h-5.79v15.04h-4.81V67.03h-21.06v.02V83.8h85.9v1.23h-66.94v6.41h66.94v1.11h-66.94v7.02h66.94v1.11h-66.94v6.41h66.94v1.24h-66.94v2.71h66.94v1.97H40v-1.97h66.93v-2.71H40v-1.24h66.93v-6.41H40v-1.11h66.93v-7.02H40v-1.11h66.93v-6.41H40V83.8h85.96V67.03h-21.12v15.04h-4.81V67.03h-5.79v15.04h-4.81V67.03h-5.79v15.04h-4.81V67.03h-5.92v15.04h-4.68V67.03h-5.8v15.04H57.5V67.03h-5.79v15.04H46.9V67.03H40v-1.11h6.9V50.88h4.81v15.04h5.79V50.88h4.93v15.04h5.8V50.88h4.68v15.04h5.92V50.88h4.81v15.04h5.79V50.88h4.81v15.04h5.79V50.88h4.81v15.04h21.12V53.3zm78.36 49.97h-88.63v-2.59h88.63v2.59z" fill="#005c92"/></svg>