<svg xmlns="http://www.w3.org/2000/svg" width="320" height="200" shape-rendering="geometricPrecision" image-rendering="optimizeQuality" fill-rule="evenodd" xmlns:v="https://vecta.io/nano"><path d="M0 0h320v200H0z" fill="#fff"/><path d="M109.23 70.01v14.32c0 7.35 3.37 10.6 9.2 10.6 5.84 0 9.64-3.37 9.64-10.54V70.01h-5.18v14.68c0 4.1-1.51 6.02-4.27 6.02-2.77 0-4.16-1.98-4.16-6.02V70.01h-5.23zm22.21 24.56h5.17v-9.64c0-.48.06-.96.18-1.32.37-.96 1.21-1.93 2.65-1.93 1.87 0 2.65 1.45 2.65 3.61v9.28h5.18v-9.94c0-4.93-2.59-7.22-5.96-7.22-2.83 0-4.45 1.63-5.18 2.71h-.12l-.24-2.35h-4.51a129.61 129.61 0 0 1 .12 5.36l.06 11.44zm21.73-24.56c-1.69 0-2.77 1.14-2.77 2.58 0 1.45 1.08 2.59 2.71 2.59 1.74 0 2.83-1.14 2.83-2.59-.06-1.44-1.09-2.58-2.77-2.58h0zm0 0h0 0zm-2.65 24.56h5.18V77.83h-5.18v16.74zm6.62-16.74l6.08 16.74h5.18l6.26-16.74h-5.48l-2.17 7.77c-.36 1.44-.66 2.7-.9 4.09h-.12c-.3-1.33-.54-2.65-.96-4.09l-2.23-7.77h-5.66zm33.23 9.99c.06-.36.18-1.14.18-2.04 0-4.16-2.05-8.37-7.47-8.37-5.83 0-8.42 4.69-8.42 8.91 0 5.24 3.25 8.55 8.91 8.55 2.28 0 4.33-.36 6.08-1.09l-.67-3.49c-1.38.48-2.82.72-4.63.72-2.41 0-4.58-1.02-4.7-3.19h10.72zm-10.78-3.55c.12-1.38 1.03-3.37 3.19-3.37 2.41 0 2.95 2.11 2.95 3.37h-6.14zm13.13 10.3h5.17v-8.49a6.16 6.16 0 0 1 .12-1.15c.36-1.62 1.63-2.64 3.55-2.64.61 0 .97.06 1.39.12v-4.88c-.36-.06-.6-.12-1.08-.12-1.63 0-3.68 1.02-4.52 3.49h-.12l-.18-3.07h-4.45c.12 1.45.12 3.07.12 5.48v11.26zm11.07-.85c1.27.66 3.19 1.21 5.42 1.21 4.82 0 7.22-2.29 7.22-5.42-.06-2.41-1.32-4.09-4.51-5.18-2.05-.72-2.71-1.14-2.71-1.92 0-.79.72-1.33 1.99-1.33 1.38 0 2.89.54 3.61.96l.9-3.61c-1.02-.54-2.71-.96-4.69-.96-4.16 0-6.81 2.35-6.81 5.48-.06 1.98 1.33 3.85 4.82 5.05 1.93.67 2.41 1.09 2.41 1.93s-.67 1.39-2.23 1.39c-1.57 0-3.55-.67-4.51-1.21l-.91 3.61h0zm17.52-23.71c-1.69 0-2.77 1.14-2.77 2.58 0 1.45 1.08 2.59 2.71 2.59 1.74 0 2.83-1.14 2.83-2.59-.06-1.44-1.09-2.58-2.77-2.58h0zm0 0h0 0zm-2.65 24.56h5.18V77.83h-5.18v16.74zm19.44-24.38v9.09h-.06c-.72-1.15-2.34-1.87-4.39-1.87-3.97 0-7.53 3.31-7.53 8.91 0 5.18 3.2 8.61 7.17 8.61 2.17 0 4.21-.97 5.23-2.83h.13l.18 2.41h4.63a106.69 106.69 0 0 1-.12-5V70.19h-5.24zm0 16.91c0 .42-.06.84-.12 1.21-.3 1.44-1.56 2.52-3.07 2.52-2.16 0-3.55-1.8-3.55-4.63 0-2.65 1.21-4.76 3.61-4.76 1.63 0 2.71 1.15 3.07 2.53.06.3.06.66.06.96v2.17h0zm22.34-2.47c0-3.97-1.75-7.28-7.35-7.28-3.07 0-5.35.84-6.5 1.5l.96 3.38c1.09-.67 2.89-1.27 4.64-1.27 2.59 0 3.07 1.27 3.07 2.17v.18c-5.9 0-9.81 2.05-9.81 6.38 0 2.65 2.04 5.12 5.42 5.12 1.98 0 3.67-.73 4.81-2.05h.12l.3 1.68h4.7c-.18-.9-.3-2.46-.3-4.03l-.06-5.78zm-5 3.79c0 .31-.06.61-.12.91-.36 1.08-1.44 1.92-2.71 1.92-1.14 0-2.04-.66-2.04-1.98 0-1.99 2.1-2.65 4.87-2.65v1.8h0zm19.2-18.23v9.09h-.06c-.72-1.15-2.35-1.87-4.39-1.87-3.98 0-7.53 3.31-7.53 8.91 0 5.18 3.19 8.61 7.17 8.61 2.16 0 4.21-.97 5.23-2.83h.12l.18 2.41H280a106.69 106.69 0 0 1-.12-5V70.19h-5.24zm0 16.91c0 .42 0 .84-.12 1.21-.3 1.44-1.56 2.52-3.07 2.52-2.16 0-3.55-1.8-3.55-4.63 0-2.65 1.2-4.76 3.61-4.76 1.63 0 2.71 1.15 3.01 2.53.06.3.06.66.06.96l.06 2.17h0z" fill="#223d71"/><path d="M73.83 135.74v-1.33h.66v-.96h-.66v-3.25H72.2l-2.1 3.37v.84h2.47v1.33h1.26zm-13.66 0v-1.33h.66v-.96h-.66v-3.25h-1.63l-2.11 3.37v.84h2.47v1.33h1.27zm-8.49 0h1.26v-5.6h-1.02l-1.51.66.18 1.03 1.09-.55v4.46zm16.37-5.6v.84l-2.29 4.76h-1.38l2.29-4.46h-2.53v-1.08l3.91-.06h0zm-10.41 3.25l.72-1.2.54-1.03h0v2.23h-1.26zm13.66 0l.72-1.2.55-1.03h0v2.23H71.3z" fill="#4e638d"/><g fill-rule="nonzero"><path d="M65.34 94.02a.54.54 0 1 0 0-1.08.54.54 0 1 0 0 1.08h0zm.54 0a.55.55 0 0 0 .55.55c.3 0 .54-.25.54-.55a.54.54 0 1 0-1.09 0h0zm-1.56-1.68a.54.54 0 1 0 0 1.08.54.54 0 1 0 0-1.08h0zm2.77 2.1a.39.39 0 0 0 .36.37.39.39 0 0 0 .36-.37.39.39 0 0 0-.36-.36c-.18 0-.36.12-.36.36h0zm2.17-14.86v-2.65a1.5 1.5 0 0 0-1.51-1.51c-.84 0-1.51.66-1.51 1.51v2.65a.29.29 0 0 0 .31.3h2.46c.12 0 .24-.12.24-.3h.01zm-6.99 12.88a.69.69 0 0 0 .72.72c.43 0 .73-.36.73-.72s-.3-.72-.73-.72a.69.69 0 0 0-.72.72h0zm-1.62.48a.54.54 0 1 0 0 1.08.54.54 0 0 0 .54-.54c0-.3-.3-.54-.54-.54h0zm1.02.48a.54.54 0 1 0 0-1.08.54.54 0 1 0 0 1.08h0zm-1.62-6.14v5.24l2.94-1.39 3.07 1.51v-5.36a2.98 2.98 0 0 0-3.01-3.01c-1.68 0-2.94 1.33-3 3.01h0zm0-10.35a1.5 1.5 0 0 0-1.51-1.51c-.84 0-1.51.66-1.51 1.51v2.65a.29.29 0 0 0 .31.3h2.46c.12 0 .31-.06.31-.3l-.06-2.65h0zm23.05-4.46l2.53-2.52H41.02l1.57 2.52H83.1zm-3.49-3.07l2.05-1.14H44.33l1.33 1.14h33.95zM59.5 93.48a.54.54 0 0 0-.54.54c0 .3.24.55.54.55s.55-.25.55-.55-.25-.54-.55-.54h0zm11.44-6.2v5.36c0 .36.3.54.54.54h4.94a.5.5 0 0 0 .54-.54v-5.36a2.98 2.98 0 1 0-6.02 0h0zm-6.62-7.46c.12 0 .3-.06.3-.3v-2.65a1.49 1.49 0 0 0-1.51-1.51c-.84 0-1.5.66-1.5 1.51v2.65c0 .18.12.3.3.3h2.41zm-6.08 14.62a.39.39 0 0 0 .36.37.39.39 0 0 0 .36-.37.39.39 0 0 0-.36-.36c-.18 0-.36.12-.36.36h0zm12.64 3.44l-7.89-4.28-8 4.22 15.89.06h0zm-8.67-3.01h1.63c.12 0 .18.06.18.18v1.26a.95.95 0 0 1-.97.96c-.54 0-.96-.42-.96-.96v-1.26c-.06-.12 0-.18.12-.18h0zM40 124.42h46.05v-2.77H40v2.77zm14.99-23.41c0-.43-.36-.79-.78-.79a.8.8 0 0 0-.79.79c0 .42.36.78.79.78.42 0 .78-.36.78-.78h0zm-6.02-13.73v5.36a.5.5 0 0 0 .54.54h4.94a.5.5 0 0 0 .54-.54v-5.36c0-1.68-1.33-3.01-3.01-3.01a2.98 2.98 0 0 0-3.01 3.01h0zm4.99-11.86c-.84 0-1.5.66-1.5 1.51v2.65c0 .18.12.3.3.3h2.47c.12 0 .3-.06.3-.3v-2.65c-.06-.84-.72-1.51-1.57-1.51h0zm-3.37 25.59c0-.43-.36-.79-.78-.79s-.78.3-.78.79c0 .48.36.78.78.78s.78-.36.78-.78h0zm-1.14-25.59c-.84 0-1.5.66-1.5 1.51v2.65c0 .18.12.3.24.3h2.46c.12 0 .31-.06.31-.3v-2.65a1.5 1.5 0 0 0-1.51-1.51h0zm-.48 39.61a.5.5 0 0 0 .54.54h4.94a.5.5 0 0 0 .54-.54v-9.15c0-1.68-1.33-3.01-3.01-3.01a2.98 2.98 0 0 0-3.01 3.01v9.15h0zm-5.9 5.66H83.1v-2.23H43.07v2.23h0zm35.15-40.81c.12 0 .3-.06.3-.3v-2.65c0-.84-.66-1.51-1.5-1.51s-1.5.66-1.5 1.51v2.65c0 .18.12.3.3.3h2.4zm-32.2 37.68h34.07v-1.45H46.02v1.45zm25.64-15.77c.42 0 .79-.36.79-.78 0-.43-.37-.79-.79-.79s-.78.36-.78.79c0 .42.36.78.78.78h0zm5.18-.78c0-.43-.36-.79-.78-.79s-.79.36-.79.79c0 .42.37.78.79.78s.78-.36.78-.78h0zm-5.36 14.5h4.94a.5.5 0 0 0 .54-.54v-9.39a2.98 2.98 0 1 0-6.02 0v9.39a.5.5 0 0 0 .54.54h0zm.78-40.09c-.84 0-1.5.66-1.5 1.51v2.65c0 .18.12.3.3.3h2.47c.12 0 .3-.06.3-.3v-2.65c-.06-.84-.78-1.51-1.57-1.51h0zm-12.82 40.15h6.93c.36 0 .78-.24.78-.78v-9.69c0-2.35-1.87-4.21-4.22-4.21-2.34 0-4.21 1.86-4.21 4.21v9.69c-.06.48.3.78.72.78h0zm-.12-15.11c.42 0 .79-.36.79-.78s-.37-.78-.79-.78-.78.36-.78.78.36.78.78.78h0zm7.71-.84c0-.42-.36-.78-.79-.78-.42 0-.78.36-.78.78s.36.78.78.78c.43 0 .79-.3.79-.78z" fill="#223d71"/><path d="M109.95 117.5l11.19-14.63v-.06l-11.19-.06v-1.98l14.63.06v1.44l-11.14 14.63v.06h11.32v1.92h-14.75v-1.38h-.06zm25.4 1.38l-.18-1.62h-.06c-.72 1.02-2.17 1.93-4.03 1.93-2.65 0-4.04-1.87-4.04-3.68 0-3.13 2.83-4.81 7.95-4.81v-.3c0-1.09-.3-3.01-3.01-3.01-1.21 0-2.53.36-3.43.96l-.54-1.56c1.08-.67 2.65-1.15 4.33-1.15 4.03 0 5 2.71 5 5.3v4.81c0 1.15.06 2.23.24 3.07h-2.23v.06zm-.36-6.56c-2.59-.06-5.6.42-5.6 2.89 0 1.51 1.02 2.23 2.29 2.23 1.74 0 2.83-1.08 3.19-2.17.06-.24.12-.48.12-.72v-2.23zm6.74-2.4l-.12-4.04h2.11l.06 2.53h.12c.6-1.75 2.04-2.83 3.67-2.83.3 0 .48 0 .66.06v2.23c-.24-.06-.48-.06-.84-.06-1.69 0-2.89 1.26-3.25 3.01-.06.3-.12.72-.12 1.08v6.92h-2.41v-8.9h.12zm16.68 8.96l-.19-1.62h-.06c-.72 1.02-2.16 1.93-4.03 1.93-2.65 0-4.03-1.87-4.03-3.68 0-3.13 2.83-4.81 7.94-4.81v-.3c0-1.09-.3-3.01-3.01-3.01-1.2 0-2.52.36-3.43.96l-.54-1.56c1.08-.67 2.65-1.15 4.33-1.15 4.04 0 5 2.71 5 5.3v4.81c0 1.15.06 2.23.24 3.07h-2.22v.06zm-.37-6.56c-2.58-.06-5.59.42-5.59 2.89 0 1.51 1.02 2.23 2.28 2.23 1.75 0 2.83-1.08 3.19-2.17.06-.24.12-.48.12-.72v-2.23zm18-6.44l-.12 3.55v7.53c0 2.95-.6 4.81-1.86 5.9-1.27 1.2-3.13 1.56-4.76 1.56-1.56 0-3.31-.36-4.39-1.08l.6-1.81c.84.54 2.23 1.03 3.85 1.03 2.47 0 4.21-1.27 4.21-4.52v-1.44h-.06c-.72 1.2-2.16 2.16-4.21 2.16-3.25 0-5.6-2.71-5.6-6.32 0-4.39 2.89-6.86 5.9-6.86 2.29 0 3.55 1.21 4.09 2.23h.07l.11-1.93h2.17zm-2.47 5.12c0-.42 0-.72-.12-1.08a3.4 3.4 0 0 0-3.37-2.47c-2.28 0-3.91 1.92-3.91 4.87 0 2.53 1.32 4.64 3.91 4.64 1.45 0 2.83-.91 3.31-2.41.12-.42.18-.84.18-1.26V111zm18.91 1.32c0 4.82-3.38 6.87-6.63 6.87-3.61 0-6.38-2.59-6.38-6.69 0-4.33 2.89-6.86 6.57-6.86 3.85 0 6.44 2.71 6.44 6.68zm-10.54.12c0 2.83 1.69 5 4.03 5 2.29 0 4.04-2.11 4.04-5.06 0-2.16-1.15-4.99-3.98-4.99-2.82 0-4.09 2.59-4.09 5.05h0zm12.22 5.06l6.02-7.65 1.75-1.98v-.06l-7.71-.06v-1.93l10.66.06v1.51l-5.96 7.52-1.69 2.05v.06H205v1.86h-10.78v-1.38h-.06zm21.19 1.38l-.18-1.62h-.06c-.72 1.02-2.17 1.93-4.03 1.93-2.65 0-4.04-1.87-4.04-3.68 0-3.13 2.83-4.81 7.95-4.81v-.3c0-1.09-.3-3.01-3.01-3.01-1.21 0-2.53.36-3.43.96l-.54-1.56c1.08-.67 2.65-1.15 4.33-1.15 4.03 0 5 2.71 5 5.3v4.81c0 1.15.06 2.23.24 3.07h-2.23v.06zm-.36-6.56c-2.59-.06-5.6.42-5.6 2.89 0 1.51 1.02 2.23 2.29 2.23 1.74 0 2.83-1.08 3.19-2.17.06-.24.12-.48.12-.72v-2.23z" fill="#221f20"/></g></svg>