<svg xmlns="http://www.w3.org/2000/svg" width="300" height="300" shape-rendering="geometricPrecision" image-rendering="optimizeQuality" fill-rule="evenodd" xmlns:v="https://vecta.io/nano"><path d="M300 150C300 67.16 232.84 0 150 0S0 67.16 0 150s67.16 150 150 150 150-67.16 150-150z" fill="#fcb425"/><path d="M114.42 195.84H86.64v-11.31c-2.83 3.54-9.46 7.15-12.34 8.77-5.04 2.82-11.89 4.66-18.31 4.66-10.39 0-19.63-3.28-27.73-10.42-9.67-8.52-14.21-21.55-14.21-35.6 0-14.28 4.96-25.69 14.86-34.21 7.86-6.78 17.48-12.21 27.68-12.21 5.94 0 13.27.53 18.49 3.05 3 1.44 8.37 4.83 11.56 8.13V57.12h27.78v138.72zm-28.41-43.81c0-5.28-1.45-11.6-5.17-15.27-3.72-3.72-10.48-7.02-15.76-7.02-5.89 0-11.33 4.28-15.12 8.72-3.06 3.6-4.59 9.16-4.59 13.78s1.74 9.76 4.8 13.36c3.72 4.44 7.73 7.49 13.67 7.49 5.34 0 11.7-2.25 15.36-5.91 3.72-3.66 6.81-9.81 6.81-15.15h0z" fill="#231f20"/><path d="M244.75 57.7c-4.62 0-8.55 1.62-11.79 4.86-3.18 3.18-4.77 7.08-4.77 11.7s1.59 8.56 4.77 11.8c3.24 3.24 7.17 4.86 11.79 4.86 4.68 0 8.62-1.59 11.8-4.77 3.24-3.24 4.86-7.21 4.86-11.89 0-4.62-1.62-8.52-4.86-11.7-3.24-3.24-7.18-4.86-11.8-4.86h0zm-73.14 46.62c-17.17 0-30.4 5.35-39.7 16.05-7.69 8.86-11.53 19.02-11.53 30.49 0 12.72 3.81 23.46 11.43 32.19 9.25 10.64 22.21 15.96 38.9 15.96 16.62 0 29.56-5.32 38.8-15.96 7.62-8.73 11.43-19.21 11.43-31.43 0-12.1-3.84-22.51-11.52-31.25-9.42-10.7-22.03-16.05-37.81-16.05zm58.38 3.25v88.2h29.53v-88.2h-29.53zm-59.28 23.62c5.4 0 9.99 2 13.77 5.99 3.84 3.93 5.77 8.74 5.77 14.44 0 5.76-1.9 10.63-5.68 14.62-3.78 3.93-8.4 5.9-13.86 5.9-6.12 0-11.11-2.41-14.95-7.23-3.12-3.86-4.68-8.29-4.68-13.29 0-4.94 1.56-9.34 4.68-13.21 3.84-4.81 8.83-7.22 14.95-7.22z" fill="#fff"/></svg>