<svg xmlns="http://www.w3.org/2000/svg" width="100" height="100" shape-rendering="geometricPrecision" image-rendering="optimizeQuality" fill-rule="evenodd" xmlns:v="https://vecta.io/nano"><defs><radialGradient id="A" gradientUnits="userSpaceOnUse" gradientTransform="matrix(2.0687 -1.69765 1.69765 2.0687 -163 -88)" cx="6" cy="92" r="50" fx="6" fy="92"><stop offset="0" stop-color="#1c7d9a"/><stop offset="1" stop-color="#274c77"/></radialGradient></defs><path d="M9 0h82a9.03 9.03 0 0 1 9 9v82a9.03 9.03 0 0 1-9 9H9a9.03 9.03 0 0 1-9-9V9a9.03 9.03 0 0 1 9-9z" fill="url(#A)"/><g fill-rule="nonzero"><path d="M20.04 23.17h32.79v8.55H29.51v9.29h13.07c-.92 1.02-1.76 2.11-2.51 3.27-.92 1.41-1.72 2.92-2.38 4.53l-.29.75h-7.89v16.67h-9.47V23.17zm29.31 17.84h.71v8.55h-7.75c1.06-2.29 2.46-4.32 4.18-6.1.88-.9 1.83-1.72 2.86-2.45z" fill="#fff"/><path d="M62.3 81.45c-3.15 0-6.09-.58-8.79-1.73-2.71-1.14-5.05-2.71-7.02-4.7-1.96-1.99-3.5-4.34-4.61-7.05-1.11-2.7-1.66-5.59-1.66-8.67v-.12c0-3.08.55-5.96 1.66-8.65 1.11-2.68 2.65-5.04 4.61-7.07 1.97-2.03 4.33-3.63 7.08-4.8s5.78-1.75 9.1-1.75c2.01 0 3.85.16 5.51.49s3.17.78 4.52 1.35c1.35.58 2.6 1.27 3.75 2.1a25.24 25.24 0 0 1 3.2 2.7l-6.03 6.95c-1.68-1.51-3.39-2.7-5.13-3.56-1.75-.87-3.7-1.3-5.88-1.3-1.8 0-3.47.35-5.01 1.05a11.92 11.92 0 0 0-3.97 2.89c-1.11 1.23-1.97 2.66-2.58 4.28-.62 1.62-.93 3.35-.93 5.19v.13c0 1.84.31 3.58.93 5.23.61 1.64 1.46 3.07 2.55 4.3a11.82 11.82 0 0 0 3.94 2.92c1.53.72 3.23 1.08 5.07 1.08 2.46 0 4.54-.45 6.25-1.35 1.7-.9 3.39-2.14 5.07-3.69l6.03 6.09c-1.11 1.19-2.26 2.25-3.45 3.2-1.19.94-2.49 1.75-3.9 2.43-1.42.67-2.97 1.18-4.65 1.53s-3.57.53-5.66.53z" fill="#a7c4d2"/></g></svg>