<svg xmlns="http://www.w3.org/2000/svg" width="200" height="200" shape-rendering="geometricPrecision" image-rendering="optimizeQuality" fill-rule="evenodd" xmlns:v="https://vecta.io/nano"><defs><radialGradient id="A" gradientUnits="userSpaceOnUse" gradientTransform="matrix(2.0687 -1.69765 1.69765 2.0687 -325 -176)" cx="12" cy="184" r="100" fx="12" fy="184"><stop offset="0" stop-color="#1c7d9a"/><stop offset="1" stop-color="#274c77"/></radialGradient></defs><path d="M18 0h164c9.9 0 18 8.1 18 18v164c0 9.9-8.1 18-18 18H18c-9.9 0-18-8.1-18-18V18C0 8.1 8.1 0 18 0z" fill="url(#A)"/><g fill-rule="nonzero"><path d="M40.08 46.33h65.58v17.11H59.03v18.57h26.14c-1.85 2.05-3.53 4.23-5.04 6.56-1.84 2.81-3.42 5.84-4.75 9.05l-.59 1.49H59.03v33.35H40.08V46.33z" fill="#fff"/><path d="M124.61 162.89c-6.32 0-12.18-1.15-17.6-3.44-5.41-2.3-10.08-5.44-14.02-9.42-3.94-3.97-7.02-8.67-9.23-14.08s-3.32-11.2-3.32-17.35v-.25c0-6.15 1.11-11.91 3.32-17.28s5.29-10.09 9.23-14.15 8.65-7.26 14.15-9.6c5.49-2.34 11.56-3.5 18.21-3.5 4.01 0 7.68.32 11.01.98 3.32.66 6.33 1.56 9.04 2.71a38.44 38.44 0 0 1 7.5 4.18c2.3 1.64 4.43 3.44 6.4 5.41l-12.05 13.91c-3.37-3.04-6.79-5.42-10.28-7.14-3.48-1.72-7.4-2.58-11.75-2.58-3.61 0-6.95.69-10.02 2.09-3.08 1.39-5.73 3.32-7.94 5.78s-3.94 5.31-5.17 8.55-1.84 6.71-1.84 10.4v.24c0 3.7.61 7.18 1.84 10.46s2.93 6.15 5.11 8.61c2.17 2.46 4.8 4.41 7.87 5.85 3.08 1.43 6.46 2.15 10.15 2.15 4.92 0 9.09-.9 12.49-2.71 3.4-1.8 6.79-4.26 10.15-7.38l12.06 12.18c-2.22 2.38-4.51 4.51-6.89 6.4a40.64 40.64 0 0 1-7.81 4.86c-2.83 1.35-5.93 2.38-9.29 3.08-3.37.69-7.14 1.04-11.32 1.04z" fill="#a7c4d2"/></g></svg>