<svg xmlns="http://www.w3.org/2000/svg" width="200" height="200" shape-rendering="geometricPrecision" image-rendering="optimizeQuality" fill-rule="evenodd" xmlns:v="https://vecta.io/nano"><defs><radialGradient id="A" gradientUnits="userSpaceOnUse" gradientTransform="matrix(2.0687 -1.69765 1.69765 2.0687 -325 -176)" cx="12" cy="184" r="100" fx="12" fy="184"><stop offset="0" stop-color="#1c7d9a"/><stop offset="1" stop-color="#274c77"/></radialGradient></defs><path d="M18 0h164c9.9 0 18 8.1 18 18v164c0 9.9-8.1 18-18 18H18c-9.9 0-18-8.1-18-18V18C0 8.1 8.1 0 18 0z" fill="url(#A)"/><path d="M143.24 148.2c-5.51 0-10.63-1.01-15.36-3.03-4.72-2.02-8.78-4.75-12.18-8.19-3.4-3.45-6.06-7.49-7.99-12.12-1.93-4.64-2.89-9.57-2.89-14.81v-.27c0-5.24.96-10.19 2.89-14.88 1.93-4.68 4.59-8.76 7.99-12.25s7.46-6.24 12.18-8.26c4.73-2.02 9.94-3.03 15.64-3.03 6.97 0 12.76 1.1 17.35 3.3s8.63 5.24 12.12 9.09l-12.81 13.77c-2.39-2.48-4.84-4.45-7.37-5.92-2.52-1.47-5.67-2.2-9.43-2.2-2.66 0-5.07.52-7.23 1.58a17.92 17.92 0 0 0-5.65 4.34c-1.61 1.83-2.84 3.97-3.72 6.4-.87 2.43-1.3 5.03-1.3 7.78v.28c0 2.84.43 5.51 1.3 7.99.88 2.47 2.14 4.63 3.79 6.47 1.65 1.83 3.63 3.28 5.92 4.33 2.3 1.06 4.87 1.59 7.71 1.59 3.49 0 6.55-.71 9.16-2.14 2.62-1.42 5.21-3.32 7.78-5.71l12.26 12.39c-3.58 3.95-7.67 7.19-12.26 9.71-4.59 2.53-10.56 3.79-17.9 3.79zM36.01 41.32h-9.09v-.91l4.97-5.65c.83-.95 1.4-1.74 1.72-2.36s.48-1.21.48-1.8c0-.92-.27-1.64-.81-2.18-.54-.53-1.28-.8-2.22-.8-.98 0-1.77.31-2.37.94-.6.62-.9 1.43-.9 2.43H26.6c0-.82.18-1.56.55-2.23a4 4 0 0 1 1.58-1.58c.68-.39 1.46-.58 2.33-.58 1.32 0 2.36.35 3.11 1.05.75.69 1.12 1.64 1.12 2.85 0 .68-.21 1.42-.63 2.22-.42.81-1.17 1.81-2.23 3.01l-4.05 4.59h7.63v1zm10.77-10.78c0 .75-.22 1.42-.66 2.02-.43.59-1.01 1.03-1.73 1.31.84.28 1.51.74 2.01 1.39.51.63.76 1.37.76 2.21 0 1.25-.42 2.23-1.26 2.96-.85.73-1.96 1.09-3.35 1.09-1.41 0-2.53-.36-3.37-1.09-.84-.72-1.26-1.71-1.26-2.96 0-.83.24-1.56.73-2.21.48-.64 1.15-1.11 1.99-1.39-.71-.28-1.29-.72-1.71-1.31-.43-.6-.64-1.27-.64-2.02 0-1.2.39-2.16 1.16-2.88.78-.71 1.8-1.06 3.08-1.06 1.27 0 2.3.36 3.08 1.07.78.72 1.17 1.68 1.17 2.87zm-.81 6.94c0-.9-.32-1.65-.97-2.23-.64-.58-1.47-.87-2.47-.87s-1.83.28-2.46.86c-.64.57-.96 1.32-.96 2.24 0 .93.3 1.67.92 2.22s1.46.82 2.52.82c1.03 0 1.85-.27 2.48-.82.62-.54.94-1.28.94-2.22zm-.38-6.95c0-.83-.29-1.53-.86-2.08-.58-.55-1.31-.83-2.2-.83-.91 0-1.64.27-2.2.8-.56.54-.84 1.24-.84 2.11 0 .85.28 1.53.84 2.05s1.3.78 2.21.78c.89 0 1.62-.27 2.19-.79s.86-1.2.86-2.04zM26.6 51.8H100v19.14H47.81v20.8H93.8v19.14H47.81v37.32H26.6V51.8z" fill="#cce2ed" fill-rule="nonzero"/></svg>