<svg xmlns="http://www.w3.org/2000/svg" width="300" height="300" shape-rendering="geometricPrecision" image-rendering="optimizeQuality" fill-rule="evenodd" xmlns:v="https://vecta.io/nano"><path d="M300 150c0 82.85-67.15 150-150 150S0 232.85 0 150 67.15 0 150 0s150 67.15 150 150z" fill="#005196"/><path d="M123.59 105.47c.31 3.73.62 7.45 1.24 10.87.62 4.35 1.56 8.69 2.49 13.04.93 3.72 1.86 7.45 3.1 11.18.93 3.1 1.87 6.21 3.11 9 1.24 3.11 2.48 5.9 3.41 8.7.62 1.55.93 2.79 1.55 4.34l.94 1.87c.31.93 0 1.55-1.24 1.55-18.93 0-45.45-6.1-63.66-11.49-1.55-.31-2.17-.93-2.48-2.79-.62-2.8-1.24-5.59-1.55-8.39-.62-2.79-.94-5.59-1.25-8.38l-.93-7.14c-.62-7.77-.93-15.84 0-23.6.62-4.35 1.24-8.69 2.49-13.04.93-3.73 2.48-7.45 4.34-10.87 2.18-4.35 4.97-8.69 8.08-12.42 4.03-4.66 8.69-8.38 13.97-11.18 4.35-2.48 8.69-4.03 13.66-4.96 10.68-2.68 22.98-1.56 33.84-.01 11.19 1.6 21.39 4.91 31.99 8.7 2.94 1.05 14.99 5.96 17.38 7.76.94.62 1.56 1.24 1.87 2.17.93 1.86-4.48 2.03-5.28 1.87-4.35-.31-8.69-.94-13.04-1.56a93.88 93.88 0 0 0-18.63-.93c-4.66 0-9.32.93-13.66 2.18-4.04 1.24-8.08 2.79-11.49 5.27-2.49 1.87-4.04 4.04-5.59 6.52-1.55 2.49-2.49 4.97-3.11 7.77-.62 2.48-.93 4.96-1.24 7.45-.31 2.17 0 4.34 0 6.52h-.31zm68.62 26.7c-1.55 2.18-3.1 4.04-5.28 5.59-3.1 2.18-6.83 3.42-10.55 4.35-7.52 1.67-16.67-.87-23.29-4.66-2.49-1.55-4.97-3.1-7.14-4.97-7.32-6.26-13.45-15.74-12.73-25.77 0-2.79.93-4.96 1.86-7.45 2.17-4.97 6.21-8.07 11.18-10.24 6.2-2.66 14.61-1.9 20.8.31 9.01 2.79 16.46 8.07 22.05 15.52 5.43 6.98 8.3 19.53 3.1 27.32zm9.32-32.29c-.62-1.55-.62-3.41-.94-5.28 0-.93.62-1.55 1.56-1.24 3.15.9 13.23 13.85 15.52 16.77 3.11 3.72 5.59 8.07 7.76 12.73 1.25 2.79 2.49 5.59 3.42 8.38 1.24 3.11 2.17 6.52 2.48 9.94 0 1.24.62 2.79.62 4.04.32 1.55.32 2.79.32 4.34 0 3.42 0 6.52-.32 9.94-.31 2.48-.62 5.28-1.55 7.76-.93 1.87-1.24 3.73-1.86 5.59-2.18 5.9-4.97 11.49-8.39 16.77-4.65 7.45-10.24 13.66-16.76 19.56-5.28 4.66-10.87 9.01-16.77 12.73-4.35 2.8-8.69 4.97-13.35 7.45-4.35 2.18-8.7 4.04-13.04 6.21l-7.77 2.8c-2.17.62-4.34 1.55-6.52 2.17-2.48.62-4.65 1.55-7.14 2.18-2.79.93-5.59 1.55-8.38 2.17-3.11.62-6.21 1.24-9.32 2.17-2.48.62-4.96.93-7.76 1.55-2.17.31-4.35.94-6.83 1.25-.31 0-1.24-.32-1.24-.63-1.24-2.79-2.18-5.89-3.42-9-1.24-2.79-2.17-5.9-3.41-8.69-.93-2.49-1.87-5.28-3.11-7.77-1.24-3.72-2.79-7.14-4.03-10.86-1.25-3.11-2.18-5.9-3.42-9.01l-2.79-7.76c-.93-2.49-1.87-4.97-2.8-7.14l-2.79-7.45-2.8-7.77c-.93-3.11-1.86-5.28-2.48-7.76-.62-1.56-1.24-3.42-1.86-4.97-.31-.93 0-1.24.93-.93 2.17.62 4.04.93 6.21 1.55 51.27 19.73 151.45 14.7 122.03-61.79z" fill="#fff" fill-rule="nonzero"/></svg>