<svg xmlns="http://www.w3.org/2000/svg" width="300" height="300" shape-rendering="geometricPrecision" image-rendering="optimizeQuality" fill-rule="evenodd" xmlns:v="https://vecta.io/nano"><path d="M300 150c0 82.85-67.15 150-150 150S0 232.85 0 150 67.15 0 150 0s150 67.15 150 150z" fill="#0a66c2"/><path d="M100.92 235.92V119.97l-38.54.01v115.94h38.54zM81.66 104.15c13.44 0 21.8-8.9 21.8-20.03-.25-11.38-8.36-20.04-21.54-20.04-13.19 0-21.8 8.66-21.8 20.04 0 11.13 8.35 20.03 21.29 20.03h.25zm40.59 131.77h38.53v-64.75c0-3.46.25-6.93 1.27-9.4 2.79-6.93 9.13-14.1 19.78-14.1 13.94 0 19.52 10.64 19.52 26.22v62.02h38.53v-66.48c0-35.61-19.01-52.18-44.36-52.18-20.78 0-29.91 11.62-34.99 19.53h.26v-16.8h-38.54c.5 10.88 0 115.94 0 115.94h0z" fill="#fff" fill-rule="nonzero"/></svg>