<svg xmlns="http://www.w3.org/2000/svg" width="300" height="300" shape-rendering="geometricPrecision" image-rendering="optimizeQuality" fill-rule="evenodd" xmlns:v="https://vecta.io/nano"><path d="M300 150C300 67.16 232.84 0 150 0S0 67.16 0 150s67.16 150 150 150 150-67.16 150-150z" fill="#f68212"/><path d="M89.5 97.24v8.28h24.28v-8.28c0-20.04 16.31-36.35 36.36-36.35 20.04 0 36.35 16.31 36.35 36.35v59.91h24.29V97.24c0-33.43-27.21-60.64-60.64-60.64-33.44 0-60.64 27.21-60.64 60.64h0zm13.28 94.65c0-26.03 21.18-47.22 47.22-47.22s47.22 21.19 47.22 47.22c0 26.04-21.18 47.23-47.22 47.23s-47.22-21.19-47.22-47.23h0zm-24.28 0c0 39.43 32.08 71.51 71.5 71.51 39.43 0 71.5-32.08 71.5-71.51 0-39.42-32.07-71.5-71.5-71.5-39.42 0-71.5 32.08-71.5 71.5h0zm91.77.22a20.04 20.04 0 0 1-20.04 20.03c-11.06 0-20.03-8.97-20.03-20.03a20.04 20.04 0 0 1 20.03-20.04 20.04 20.04 0 0 1 20.04 20.04z" fill="#fff" fill-rule="nonzero"/></svg>