<svg xmlns="http://www.w3.org/2000/svg" width="300" height="300" shape-rendering="geometricPrecision" image-rendering="optimizeQuality" fill-rule="evenodd" xmlns:v="https://vecta.io/nano"><path d="M300 150c0 82.85-67.15 150-150 150S0 232.85 0 150 67.15 0 150 0s150 67.15 150 150z" fill="#a6ce39"/><path d="M101.13 218.2H83.09V92.7h18.04v56.71 68.79zm2.82-151.64c0 6.45-5.28 11.84-11.84 11.84s-11.84-5.39-11.84-11.84c0-6.56 5.28-11.83 11.84-11.83s11.84 5.39 11.84 11.83zm23.67 26.14h48.75c46.4 0 66.79 33.16 66.79 62.81 0 32.22-25.19 62.81-66.56 62.81h-48.98V92.7zm18.04 109.33h28.72c40.89 0 50.27-31.05 50.27-46.52 0-25.2-16.06-46.53-51.21-46.53h-27.78v93.05z" fill="#fff"/></svg>