<svg xmlns="http://www.w3.org/2000/svg" width="300" height="300" shape-rendering="geometricPrecision" image-rendering="optimizeQuality" fill-rule="nonzero" xmlns:v="https://vecta.io/nano"><path d="M300 150c0 82.87-67.23 150.1-150 150.1C67.13 300.1 0 232.87 0 150S67.14-.1 150-.1c82.77 0 150 67.23 150 150.1z" fill="#d15e62"/><path d="M48.54 188.6v-77.2h25c9.47 0 15.63.38 18.51 1.15 4.42 1.17 8.12 3.68 11.1 7.57 2.99 3.88 4.48 8.89 4.48 15.04 0 4.74-.87 8.71-2.57 11.95-1.73 3.23-3.9 5.77-6.54 7.62-2.65 1.83-5.34 3.05-8.07 3.64-3.72.74-9.1 1.12-16.14 1.12H64.17v29.11H48.54zm15.63-64.15v21.99h8.5c6.13 0 10.21-.41 12.28-1.22 2.06-.81 3.68-2.07 4.85-3.81 1.17-1.72 1.76-3.72 1.76-6.02 0-2.82-.83-5.14-2.46-6.97-1.65-1.84-3.72-2.99-6.25-3.45-1.86-.34-5.58-.52-11.18-.52h-7.5zm56.29-13.05h28.43c6.41 0 11.3.48 14.66 1.47 4.51 1.33 8.39 3.71 11.61 7.12 3.23 3.4 5.68 7.57 7.37 12.51 1.67 4.92 2.51 11.01 2.51 18.24 0 6.36-.79 11.82-2.37 16.42-1.92 5.63-4.67 10.17-8.25 13.64-2.69 2.64-6.34 4.69-10.92 6.17-3.44 1.09-8.02 1.63-13.77 1.63h-29.27v-77.2zm15.63 13.05v51.1h11.59c4.33 0 7.46-.25 9.38-.73 2.54-.63 4.62-1.71 6.28-3.22 1.67-1.51 3.01-3.99 4.06-7.44 1.06-3.45 1.58-8.18 1.58-14.14 0-5.97-.52-10.53-1.58-13.73-1.05-3.2-2.52-5.68-4.41-7.48-1.88-1.78-4.27-3-7.18-3.63-2.16-.48-6.42-.73-12.75-.73h-6.97zm62.23 64.15v-77.2h53.05v13.05h-37.41v18.33h32.35v13.04h-32.35v32.78h-15.64z" fill="#fff"/></svg>