<svg xmlns="http://www.w3.org/2000/svg" width="300" height="300" shape-rendering="geometricPrecision" image-rendering="optimizeQuality" fill-rule="nonzero" xmlns:v="https://vecta.io/nano"><path d="M300 150c0 82.87-67.23 150.1-150 150.1C67.13 300.1 0 232.87 0 150S67.14-.1 150-.1c82.77 0 150 67.23 150 150.1z" fill="#04d4ac"/><path d="M161.52 215.54c-13.4-2.62-21.35-10.39-41.67-40.54-6.74-10.12-6.74-10.12-13.3-10.58-9.64-.66-8.89-2.34-8.61 18.91.37 24.16.09 23.6 14.05 25.94 3.65.56 3.93.84 3.93 3 0 2.43 0 2.43-24.53 2.62-23.04.19-24.54.09-25-1.31-.94-2.71.46-4.03 5.52-4.96 5.71-1.03 8.71-3.37 9.46-7.31.37-1.49.46-21.72.28-44.94-.28-48.78.28-45.88-8.71-47.85-5.62-1.21-7.4-2.52-6.65-4.77.56-1.5 1.78-1.59 27.34-2.06 38.01-.75 45.13.47 55.24 9.46 10.58 9.45 12.08 23.87 3.65 35.95-3.74 5.43-11.23 11.24-17.04 13.39-2.71 1.03-4.96 2.16-4.96 2.53 0 1.13 8.62 13.39 13.95 19.95 14.24 17.32 21.91 24.06 29.87 26.12 4.96 1.31 6.37 2.71 4.96 5.15-1.49 2.53-8.99 3.09-17.79 1.31l.01-.01zm-35.86-62.08c18.72-7.67 20.13-33.42 2.34-41.01-4.59-1.97-5.81-2.06-17.33-2.06-12.45 0-12.45 0-12.64 21.63-.19 11.89-.09 22.19.19 22.75.84 1.97 21.91.94 27.43-1.31h.01zm65.26-26.68c-14.52-2.72-19.29-11.61-18.54-34.46.37-12.64 1.4-16.11 6.27-21.35 8.61-9.27 29.96-8.43 37.83 1.5 3.37 4.21 3.09 5.52-1.59 6.93-3.66 1.21-3.66 1.21-7.03-2.16-7.95-7.68-21.72-4.87-24.15 5.06-1.22 4.4-1.13 23.03.09 27.24 3.28 11.89 23.03 11.89 26.4 0 2.06-7.58 1.6-8.14-7.49-8.61-4.4-.19-4.4-.19-4.4-3.84 0-3.56 0-3.56 10.49-3.84 13.57-.28 13.39-.47 12.73 9.46-.84 12.45-4.22 18.44-12.36 22-5.34 2.25-12.64 3.09-18.26 2.06l.01.01zm0 0z" fill="#fff"/></svg>